<svg width="392" height="229" viewBox="0 0 392 229" fill="none" xmlns="http://www.w3.org/2000/svg">
<path d="M1 0H392V228H1V0Z" fill="white"/>
<g clip-path="url(#clip0_1_213)">
<path d="M81.75 46.7499C81.7541 48.5935 81.3552 50.4157 80.5813 52.089L87.5938 64.2015C84.409 67.6086 80.3467 70.0718 75.8531 71.3202L69 59.4999H68.881L59.956 75.1059C62.8815 76.0309 65.9317 76.5011 69 76.4999C73.4741 76.5098 77.8916 75.4994 81.9167 73.5456C85.9417 71.5918 89.4683 68.7461 92.2284 65.2247C92.9547 64.3654 93.9899 63.8263 95.1104 63.7238C96.2308 63.6213 97.3467 63.9636 98.2169 64.6767C99.0872 65.3899 99.642 66.4167 99.7616 67.5355C99.8812 68.6542 99.556 69.7751 98.8562 70.6562C95.2685 75.1269 90.7239 78.7362 85.557 81.2186C80.3901 83.7009 74.7323 84.993 69 84.9999C64.4342 85.0051 59.9044 84.1907 55.6263 82.5955L48.1017 95.5856C47.4766 96.6643 46.55 97.5369 45.4359 98.0963L38.0759 101.775C37.752 101.937 37.392 102.013 37.0301 101.997C36.6683 101.981 36.3166 101.873 36.0084 101.682C35.7002 101.492 35.4458 101.226 35.2693 100.91C35.0928 100.593 35.0001 100.237 35 99.8749V92.5182C35.0024 91.3945 35.2983 90.291 35.8585 89.3169L43.8272 75.5575C42.1275 74.062 40.5605 72.4221 39.1438 70.6562C38.4374 69.7751 38.1071 68.6509 38.2248 67.5277C38.3425 66.4046 38.8986 65.3732 39.7722 64.6577C40.6459 63.9422 41.7666 63.6003 42.8909 63.7062C44.0152 63.8122 45.0523 64.3575 45.7769 65.2236C46.4954 66.2261 47.3053 67.1598 48.1962 68.0127L57.4188 52.089C56.6216 50.3578 56.2227 48.47 56.2514 46.5643C56.2802 44.6587 56.7357 42.7837 57.5846 41.0773C58.4335 39.3709 59.6542 37.8766 61.1568 36.7042C62.6594 35.5318 64.4057 34.7111 66.2673 34.3026C68.1288 33.8942 70.0583 33.9082 71.9137 34.3438C73.7692 34.7793 75.5034 35.6253 76.9887 36.8194C78.4741 38.0136 79.6729 39.5255 80.4969 41.2441C81.3208 42.9626 81.749 44.8441 81.75 46.7499ZM69 50.9999C69.8406 50.9999 70.6623 50.7507 71.3612 50.2837C72.0601 49.8167 72.6048 49.1529 72.9265 48.3763C73.2482 47.5997 73.3323 46.7452 73.1683 45.9208C73.0043 45.0964 72.5996 44.3391 72.0052 43.7447C71.4108 43.1504 70.6536 42.7456 69.8291 42.5816C69.0047 42.4176 68.1502 42.5018 67.3736 42.8234C66.597 43.1451 65.9333 43.6898 65.4663 44.3888C64.9993 45.0877 64.75 45.9094 64.75 46.7499C64.75 47.8771 65.1978 48.9581 65.9948 49.7551C66.7918 50.5522 67.8728 50.9999 69 50.9999ZM84.4201 86.3153C88.7576 84.6593 92.785 82.2839 96.3328 79.289L102.137 89.3169C102.703 90.289 103 91.3936 103 92.5182V99.8749C103 100.238 102.908 100.595 102.731 100.912C102.554 101.229 102.299 101.495 101.99 101.686C101.681 101.876 101.329 101.984 100.966 102C100.603 102.016 100.243 101.938 99.9187 101.775L92.5609 98.0952C91.4479 97.5327 90.5208 96.6609 89.8909 95.5846L84.4201 86.3153Z" fill="#A68F4B"/>
</g>
<path d="M125.731 47.063C125.731 47.7004 125.683 48.2697 125.586 48.771C125.489 49.2723 125.337 49.6966 125.129 50.0439C124.922 50.3913 124.653 50.6562 124.324 50.8389C123.994 51.0179 123.599 51.1074 123.137 51.1074C122.553 51.1074 122.07 50.9481 121.687 50.6294C121.307 50.3107 121.022 49.8506 120.833 49.249C120.646 48.6439 120.553 47.9152 120.553 47.063C120.553 46.2251 120.637 45.5054 120.806 44.9038C120.978 44.2987 121.253 43.835 121.633 43.5127C122.012 43.1868 122.514 43.0239 123.137 43.0239C123.728 43.0239 124.215 43.1851 124.598 43.5073C124.981 43.826 125.265 44.2879 125.452 44.8931C125.638 45.4946 125.731 46.2179 125.731 47.063ZM121.45 47.063C121.45 47.7935 121.506 48.4022 121.617 48.8892C121.728 49.3761 121.907 49.7414 122.154 49.9849C122.404 50.2248 122.732 50.3447 123.137 50.3447C123.541 50.3447 123.867 50.2248 124.114 49.9849C124.365 49.745 124.546 49.3815 124.657 48.8945C124.771 48.4076 124.829 47.797 124.829 47.063C124.829 46.3433 124.773 45.7417 124.662 45.2583C124.551 44.7713 124.372 44.4061 124.125 44.1626C123.878 43.9155 123.549 43.792 123.137 43.792C122.725 43.792 122.396 43.9155 122.148 44.1626C121.901 44.4061 121.722 44.7713 121.611 45.2583C121.504 45.7417 121.45 46.3433 121.45 47.063ZM134.455 44.979C134.455 45.3299 134.387 45.6343 134.251 45.8921C134.115 46.1499 133.925 46.3612 133.682 46.5259C133.438 46.687 133.152 46.7998 132.823 46.8643V46.9072C133.446 46.986 133.913 47.1865 134.224 47.5088C134.54 47.8311 134.697 48.2536 134.697 48.7764C134.697 49.2311 134.59 49.634 134.375 49.9849C134.164 50.3358 133.838 50.6115 133.397 50.812C132.96 51.009 132.4 51.1074 131.716 51.1074C131.301 51.1074 130.916 51.0734 130.561 51.0054C130.21 50.9409 129.874 50.8317 129.552 50.6777V49.8398C129.877 50.001 130.232 50.1281 130.615 50.2212C130.998 50.3107 131.369 50.3555 131.727 50.3555C132.443 50.3555 132.96 50.214 133.279 49.9312C133.598 49.6447 133.757 49.2544 133.757 48.7603C133.757 48.4201 133.668 48.1462 133.489 47.9385C133.313 47.7272 133.059 47.5732 132.726 47.4766C132.396 47.3763 131.999 47.3262 131.533 47.3262H130.749V46.5635H131.539C131.965 46.5635 132.327 46.5008 132.624 46.3755C132.921 46.2502 133.147 46.0747 133.301 45.8491C133.458 45.62 133.537 45.3496 133.537 45.0381C133.537 44.6406 133.404 44.3345 133.139 44.1196C132.874 43.9012 132.515 43.792 132.06 43.792C131.781 43.792 131.526 43.8206 131.297 43.8779C131.068 43.9352 130.853 44.014 130.653 44.1143C130.452 44.2145 130.252 44.3309 130.051 44.4634L129.6 43.8511C129.886 43.6291 130.235 43.4375 130.647 43.2764C131.059 43.1152 131.526 43.0347 132.049 43.0347C132.851 43.0347 133.453 43.2173 133.854 43.5825C134.255 43.9478 134.455 44.4132 134.455 44.979ZM142.03 43.1475L139.108 51H138.228L141.155 43.1475H142.03ZM150.647 47.063C150.647 47.7004 150.599 48.2697 150.502 48.771C150.406 49.2723 150.253 49.6966 150.046 50.0439C149.838 50.3913 149.57 50.6562 149.24 50.8389C148.911 51.0179 148.515 51.1074 148.053 51.1074C147.469 51.1074 146.986 50.9481 146.603 50.6294C146.223 50.3107 145.939 49.8506 145.749 49.249C145.563 48.6439 145.47 47.9152 145.47 47.063C145.47 46.2251 145.554 45.5054 145.722 44.9038C145.894 44.2987 146.17 43.835 146.549 43.5127C146.929 43.1868 147.43 43.0239 148.053 43.0239C148.644 43.0239 149.131 43.1851 149.514 43.5073C149.897 43.826 150.182 44.2879 150.368 44.8931C150.554 45.4946 150.647 46.2179 150.647 47.063ZM146.367 47.063C146.367 47.7935 146.422 48.4022 146.533 48.8892C146.644 49.3761 146.823 49.7414 147.07 49.9849C147.321 50.2248 147.649 50.3447 148.053 50.3447C148.458 50.3447 148.784 50.2248 149.031 49.9849C149.281 49.745 149.462 49.3815 149.573 48.8945C149.688 48.4076 149.745 47.797 149.745 47.063C149.745 46.3433 149.69 45.7417 149.579 45.2583C149.468 44.7713 149.288 44.4061 149.041 44.1626C148.794 43.9155 148.465 43.792 148.053 43.792C147.641 43.792 147.312 43.9155 147.065 44.1626C146.818 44.4061 146.639 44.7713 146.528 45.2583C146.42 45.7417 146.367 46.3433 146.367 47.063ZM154.597 47.6431C154.597 47.1704 154.629 46.7085 154.694 46.2573C154.762 45.8062 154.874 45.3872 155.032 45.0005C155.189 44.6102 155.404 44.2682 155.676 43.9746C155.949 43.681 156.287 43.4518 156.692 43.2871C157.1 43.1188 157.589 43.0347 158.158 43.0347C158.319 43.0347 158.493 43.0436 158.679 43.0615C158.865 43.0758 159.019 43.1009 159.141 43.1367V43.9048C159.008 43.8582 158.856 43.8242 158.684 43.8027C158.516 43.7812 158.346 43.7705 158.174 43.7705C157.508 43.7705 156.983 43.9155 156.6 44.2056C156.221 44.4956 155.947 44.8895 155.779 45.3872C155.61 45.8813 155.514 46.4382 155.488 47.0576H155.548C155.659 46.8786 155.8 46.7174 155.972 46.5742C156.144 46.4274 156.351 46.311 156.595 46.2251C156.842 46.1392 157.128 46.0962 157.454 46.0962C157.913 46.0962 158.312 46.1893 158.652 46.3755C158.996 46.5617 159.261 46.832 159.447 47.1865C159.637 47.541 159.732 47.9707 159.732 48.4756C159.732 49.0163 159.631 49.4836 159.431 49.8774C159.23 50.2713 158.944 50.5757 158.571 50.7905C158.203 51.0018 157.762 51.1074 157.25 51.1074C156.867 51.1074 156.514 51.034 156.192 50.8872C155.87 50.7404 155.589 50.522 155.349 50.2319C155.112 49.9419 154.928 49.582 154.796 49.1523C154.663 48.7191 154.597 48.216 154.597 47.6431ZM157.239 50.3555C157.726 50.3555 158.117 50.1997 158.41 49.8882C158.704 49.5767 158.851 49.1058 158.851 48.4756C158.851 47.96 158.72 47.5518 158.459 47.251C158.197 46.9502 157.803 46.7998 157.277 46.7998C156.919 46.7998 156.607 46.875 156.342 47.0254C156.078 47.1722 155.872 47.3584 155.725 47.584C155.578 47.8096 155.505 48.0387 155.505 48.2715C155.505 48.5078 155.539 48.7477 155.607 48.9912C155.678 49.2347 155.786 49.4603 155.929 49.668C156.072 49.8757 156.253 50.0422 156.471 50.1675C156.69 50.2928 156.946 50.3555 157.239 50.3555Z" fill="#99823D"/>
<path d="M123.406 85H121.352V68.724H123.926L126.708 78.812L129.49 68.724H132.064V85H130.01V73.092L127.774 81.464H125.642L123.406 73.118V85ZM139.282 72.312H141.622V85H139.282V83.986C139.057 84.662 138.52 85 137.67 85H136.734C135.174 85 134.394 84.2373 134.394 82.712V74.626C134.394 73.0833 135.174 72.312 136.734 72.312H137.67C138.52 72.312 139.057 72.65 139.282 73.326V72.312ZM137.514 83.102H138.424C138.736 83.102 138.953 83.0327 139.074 82.894C139.213 82.7553 139.282 82.5213 139.282 82.192V75.12C139.282 74.7907 139.213 74.5567 139.074 74.418C138.953 74.2793 138.736 74.21 138.424 74.21H137.514C137.202 74.21 136.994 74.262 136.89 74.366C136.786 74.4527 136.734 74.652 136.734 74.964V82.348C136.734 82.66 136.786 82.868 136.89 82.972C136.994 83.0587 137.202 83.102 137.514 83.102ZM148.157 82.452V80.346C148.157 80.034 148.105 79.8347 148.001 79.748C147.897 79.644 147.689 79.592 147.377 79.592H146.051C144.439 79.592 143.633 78.8293 143.633 77.304V74.626C143.633 73.0833 144.439 72.312 146.051 72.312H147.949C149.579 72.312 150.393 73.0833 150.393 74.626V75.848H148.105V74.86C148.105 74.548 148.053 74.3487 147.949 74.262C147.845 74.158 147.637 74.106 147.325 74.106H146.701C146.389 74.106 146.181 74.158 146.077 74.262C145.973 74.3487 145.921 74.548 145.921 74.86V77.044C145.921 77.356 145.973 77.564 146.077 77.668C146.181 77.7547 146.389 77.798 146.701 77.798H148.053C149.648 77.798 150.445 78.5693 150.445 80.112V82.712C150.445 84.2373 149.639 85 148.027 85H146.103C144.491 85 143.685 84.2373 143.685 82.712V81.464H145.973V82.452C145.973 82.764 146.025 82.972 146.129 83.076C146.233 83.1627 146.441 83.206 146.753 83.206H147.377C147.689 83.206 147.897 83.1627 148.001 83.076C148.105 82.972 148.157 82.764 148.157 82.452ZM156.741 74.21H154.999V82.244C154.999 82.556 155.042 82.764 155.129 82.868C155.233 82.9547 155.441 82.998 155.753 82.998H156.741V85H155.077C153.447 85 152.633 84.2373 152.633 82.712V74.21H151.437V72.312H152.633V70.154H154.999V72.312H156.741V74.21ZM160.504 72.312H163.052C164.681 72.312 165.496 73.0833 165.496 74.626V79.384H160.374V82.4C160.374 82.6947 160.426 82.894 160.53 82.998C160.634 83.102 160.842 83.154 161.154 83.154H162.35C162.662 83.154 162.87 83.102 162.974 82.998C163.078 82.894 163.13 82.686 163.13 82.374V81.334H165.418V82.712C165.418 84.2373 164.612 85 163 85H160.504C158.892 85 158.086 84.2373 158.086 82.712V74.626C158.086 73.0833 158.892 72.312 160.504 72.312ZM160.374 77.668H163.182V74.912C163.182 74.6173 163.13 74.418 163.026 74.314C162.939 74.21 162.74 74.158 162.428 74.158H161.154C160.842 74.158 160.634 74.21 160.53 74.314C160.426 74.418 160.374 74.6173 160.374 74.912V77.668ZM171.901 72.286H172.421V74.314H171.485C170.393 74.314 169.847 74.9553 169.847 76.238V85H167.507V72.312H169.847V73.872C169.986 73.4213 170.229 73.0487 170.575 72.754C170.939 72.442 171.381 72.286 171.901 72.286ZM177.668 68.724H182.998C184.61 68.724 185.416 69.4867 185.416 71.012V76.42C185.416 77.9453 184.61 78.708 182.998 78.708H180.008V85H177.668V68.724ZM183.076 76.056V71.376C183.076 71.064 183.024 70.8647 182.92 70.778C182.816 70.674 182.608 70.622 182.296 70.622H180.008V76.836H182.296C182.608 76.836 182.816 76.784 182.92 76.68C183.024 76.576 183.076 76.368 183.076 76.056ZM189.627 85H187.287V67.606H189.627V85ZM196.64 72.312H198.98V85H196.64V83.986C196.414 84.662 195.877 85 195.028 85H194.092C192.532 85 191.752 84.2373 191.752 82.712V74.626C191.752 73.0833 192.532 72.312 194.092 72.312H195.028C195.877 72.312 196.414 72.65 196.64 73.326V72.312ZM194.872 83.102H195.782C196.094 83.102 196.31 83.0327 196.432 82.894C196.57 82.7553 196.64 82.5213 196.64 82.192V75.12C196.64 74.7907 196.57 74.5567 196.432 74.418C196.31 74.2793 196.094 74.21 195.782 74.21H194.872C194.56 74.21 194.352 74.262 194.248 74.366C194.144 74.4527 194.092 74.652 194.092 74.964V82.348C194.092 82.66 194.144 82.868 194.248 82.972C194.352 83.0587 194.56 83.102 194.872 83.102ZM205.229 72.312H206.139C207.716 72.312 208.505 73.0833 208.505 74.626V85H206.165V74.964C206.165 74.652 206.113 74.4527 206.009 74.366C205.905 74.262 205.697 74.21 205.385 74.21H204.475C204.163 74.21 203.937 74.2793 203.799 74.418C203.677 74.5567 203.617 74.7907 203.617 75.12V85H201.277V72.312H203.617V73.326C203.842 72.65 204.379 72.312 205.229 72.312ZM210.721 69.894V67.58H213.165V69.894H210.721ZM213.113 85H210.773V72.312H213.113V85ZM219.346 72.312H220.256C221.833 72.312 222.622 73.0833 222.622 74.626V85H220.282V74.964C220.282 74.652 220.23 74.4527 220.126 74.366C220.022 74.262 219.814 74.21 219.502 74.21H218.592C218.28 74.21 218.055 74.2793 217.916 74.418C217.795 74.5567 217.734 74.7907 217.734 75.12V85H215.394V72.312H217.734V73.326C217.959 72.65 218.497 72.312 219.346 72.312ZM229.622 72.312H231.962V86.3C231.962 87.8253 231.147 88.588 229.518 88.588H225.176V86.742H228.842C229.154 86.742 229.362 86.69 229.466 86.586C229.57 86.482 229.622 86.2827 229.622 85.988V83.83C229.397 84.506 228.859 84.844 228.01 84.844H227.074C225.514 84.844 224.734 84.0727 224.734 82.53V74.626C224.734 73.0833 225.514 72.312 227.074 72.312H228.01C228.859 72.312 229.397 72.65 229.622 73.326V72.312ZM227.854 82.946H228.764C229.076 82.946 229.293 82.8767 229.414 82.738C229.553 82.5993 229.622 82.3653 229.622 82.036V75.12C229.622 74.7907 229.553 74.5567 229.414 74.418C229.293 74.2793 229.076 74.21 228.764 74.21H227.854C227.542 74.21 227.334 74.262 227.23 74.366C227.126 74.4527 227.074 74.652 227.074 74.964V82.192C227.074 82.4867 227.126 82.686 227.23 82.79C227.334 82.894 227.542 82.946 227.854 82.946Z" fill="#141414"/>
<path d="M43.417 139H36.6602V126.864H43.417V128.109H38.0713V132.036H43.1099V133.264H38.0713V137.755H43.417V139ZM48.0654 134.343L44.9194 129.902H46.4966L48.8955 133.405L51.2861 129.902H52.8467L49.7007 134.343L53.021 139H51.4438L48.8955 135.29L46.3306 139H44.77L48.0654 134.343ZM58.4414 139.166C57.6224 139.166 56.9002 138.997 56.2749 138.66C55.6496 138.322 55.1626 137.807 54.814 137.116C54.4653 136.424 54.291 135.552 54.291 134.501C54.291 133.4 54.4736 132.5 54.8389 131.803C55.2096 131.1 55.7188 130.58 56.3662 130.243C57.0137 129.905 57.7497 129.736 58.5742 129.736C59.028 129.736 59.4652 129.783 59.8857 129.877C60.3118 129.966 60.6605 130.079 60.9316 130.218L60.5166 131.372C60.2399 131.261 59.9189 131.161 59.5537 131.073C59.194 130.984 58.8564 130.94 58.541 130.94C57.9102 130.94 57.3844 131.076 56.9639 131.347C56.5488 131.618 56.2362 132.016 56.0259 132.542C55.8211 133.068 55.7188 133.715 55.7188 134.484C55.7188 135.22 55.8184 135.848 56.0176 136.369C56.2223 136.889 56.5239 137.287 56.9224 137.564C57.3263 137.835 57.8299 137.971 58.4331 137.971C58.9146 137.971 59.349 137.921 59.7363 137.821C60.1237 137.716 60.4751 137.594 60.7905 137.456V138.685C60.4862 138.84 60.1458 138.958 59.7695 139.042C59.3988 139.125 58.9561 139.166 58.4414 139.166ZM66.4517 129.736C67.2264 129.736 67.8905 129.908 68.4438 130.251C68.9972 130.594 69.4206 131.076 69.7139 131.695C70.0072 132.31 70.1538 133.029 70.1538 133.854V134.708H63.8701C63.8867 135.777 64.1523 136.59 64.667 137.149C65.1816 137.708 65.9066 137.987 66.8418 137.987C67.4173 137.987 67.9264 137.935 68.3691 137.83C68.8118 137.724 69.2712 137.569 69.7471 137.365V138.577C69.2878 138.781 68.8312 138.931 68.3774 139.025C67.9292 139.119 67.3979 139.166 66.7837 139.166C65.9093 139.166 65.1457 138.989 64.4927 138.635C63.8452 138.275 63.3416 137.749 62.9819 137.058C62.6222 136.366 62.4424 135.519 62.4424 134.518C62.4424 133.538 62.6056 132.691 62.9321 131.978C63.2642 131.258 63.729 130.705 64.3267 130.317C64.9299 129.93 65.6382 129.736 66.4517 129.736ZM66.4351 130.865C65.6991 130.865 65.1125 131.106 64.6753 131.587C64.2381 132.069 63.978 132.741 63.895 133.604H68.7095C68.7039 133.062 68.6182 132.586 68.4521 132.177C68.2917 131.762 68.0454 131.441 67.7134 131.214C67.3813 130.981 66.9552 130.865 66.4351 130.865ZM76.7695 129.736C77.904 129.736 78.8088 130.126 79.4839 130.907C80.159 131.687 80.4966 132.86 80.4966 134.426C80.4966 135.461 80.3416 136.33 80.0317 137.033C79.7218 137.736 79.2847 138.267 78.7202 138.626C78.1613 138.986 77.5 139.166 76.7363 139.166C76.2549 139.166 75.8315 139.102 75.4663 138.975C75.1011 138.848 74.7884 138.676 74.5283 138.46C74.2682 138.245 74.0524 138.009 73.8809 137.755H73.7812C73.7979 137.971 73.8172 138.231 73.8394 138.535C73.867 138.84 73.8809 139.105 73.8809 139.332V143.067H72.4946V129.902H73.6318L73.8145 131.247H73.8809C74.0579 130.97 74.2738 130.719 74.5283 130.492C74.7829 130.259 75.0928 130.077 75.458 129.944C75.8288 129.806 76.266 129.736 76.7695 129.736ZM76.5288 130.898C75.8979 130.898 75.3888 131.02 75.0015 131.264C74.6196 131.507 74.3402 131.872 74.1631 132.359C73.986 132.841 73.8919 133.447 73.8809 134.177V134.443C73.8809 135.212 73.9639 135.862 74.1299 136.394C74.3014 136.925 74.5809 137.329 74.9683 137.605C75.3612 137.882 75.8869 138.021 76.5454 138.021C77.1099 138.021 77.5802 137.868 77.9565 137.564C78.3328 137.26 78.6123 136.836 78.7949 136.294C78.9831 135.746 79.0771 135.118 79.0771 134.41C79.0771 133.336 78.8669 132.484 78.4463 131.853C78.0312 131.217 77.3921 130.898 76.5288 130.898ZM85.8423 138.037C86.0692 138.037 86.3016 138.018 86.5396 137.979C86.7775 137.94 86.9712 137.893 87.1206 137.838V138.909C86.9601 138.981 86.736 139.042 86.4482 139.091C86.166 139.141 85.8893 139.166 85.6182 139.166C85.1367 139.166 84.6995 139.083 84.3066 138.917C83.9137 138.745 83.5983 138.458 83.3604 138.054C83.1279 137.65 83.0117 137.091 83.0117 136.377V130.981H81.7168V130.309L83.02 129.77L83.5679 127.794H84.3979V129.902H87.0625V130.981H84.3979V136.335C84.3979 136.905 84.528 137.332 84.7881 137.614C85.0537 137.896 85.4051 138.037 85.8423 138.037ZM96.4756 129.902V139H95.3467L95.1475 137.722H95.0728C94.8846 138.037 94.6411 138.303 94.3423 138.519C94.0435 138.734 93.7059 138.895 93.3296 139C92.9588 139.111 92.5632 139.166 92.1426 139.166C91.4232 139.166 90.82 139.05 90.333 138.817C89.846 138.585 89.478 138.225 89.229 137.738C88.9855 137.251 88.8638 136.626 88.8638 135.862V129.902H90.2583V135.763C90.2583 136.521 90.4299 137.088 90.7729 137.464C91.116 137.835 91.639 138.021 92.3418 138.021C93.0169 138.021 93.5537 137.893 93.9521 137.639C94.3561 137.384 94.6466 137.011 94.8237 136.518C95.0008 136.02 95.0894 135.411 95.0894 134.692V129.902H96.4756ZM103.523 129.736C103.706 129.736 103.896 129.747 104.096 129.77C104.295 129.786 104.472 129.811 104.627 129.844L104.453 131.123C104.303 131.084 104.137 131.053 103.955 131.031C103.772 131.009 103.6 130.998 103.44 130.998C103.075 130.998 102.729 131.073 102.402 131.222C102.081 131.366 101.799 131.576 101.556 131.853C101.312 132.124 101.121 132.453 100.983 132.841C100.845 133.223 100.775 133.649 100.775 134.119V139H99.3892V129.902H100.535L100.684 131.579H100.742C100.93 131.242 101.157 130.934 101.423 130.658C101.688 130.375 101.996 130.151 102.344 129.985C102.698 129.819 103.091 129.736 103.523 129.736ZM107.723 129.902V139H106.345V129.902H107.723ZM107.051 126.499C107.278 126.499 107.471 126.574 107.632 126.723C107.798 126.867 107.881 127.094 107.881 127.404C107.881 127.708 107.798 127.935 107.632 128.084C107.471 128.234 107.278 128.309 107.051 128.309C106.813 128.309 106.614 128.234 106.453 128.084C106.298 127.935 106.221 127.708 106.221 127.404C106.221 127.094 106.298 126.867 106.453 126.723C106.614 126.574 106.813 126.499 107.051 126.499ZM120.946 136.51C120.946 137.091 120.8 137.581 120.506 137.979C120.219 138.372 119.804 138.668 119.261 138.867C118.724 139.066 118.083 139.166 117.335 139.166C116.699 139.166 116.148 139.116 115.684 139.017C115.219 138.917 114.812 138.776 114.463 138.593V137.323C114.834 137.506 115.277 137.672 115.792 137.821C116.306 137.971 116.832 138.045 117.369 138.045C118.154 138.045 118.724 137.918 119.079 137.664C119.433 137.409 119.61 137.063 119.61 136.626C119.61 136.377 119.538 136.158 119.394 135.97C119.256 135.777 119.021 135.591 118.688 135.414C118.356 135.231 117.897 135.032 117.311 134.816C116.729 134.595 116.226 134.376 115.8 134.161C115.379 133.939 115.053 133.671 114.82 133.355C114.593 133.04 114.48 132.631 114.48 132.127C114.48 131.358 114.79 130.768 115.41 130.359C116.035 129.944 116.854 129.736 117.867 129.736C118.415 129.736 118.926 129.792 119.402 129.902C119.884 130.007 120.332 130.151 120.747 130.334L120.282 131.438C119.906 131.278 119.505 131.142 119.079 131.031C118.653 130.921 118.218 130.865 117.775 130.865C117.139 130.865 116.649 130.97 116.306 131.181C115.969 131.391 115.8 131.679 115.8 132.044C115.8 132.326 115.877 132.559 116.032 132.741C116.193 132.924 116.447 133.095 116.796 133.256C117.145 133.416 117.604 133.604 118.174 133.82C118.744 134.031 119.236 134.249 119.651 134.476C120.066 134.697 120.385 134.969 120.606 135.29C120.833 135.605 120.946 136.012 120.946 136.51ZM126.666 129.736C127.44 129.736 128.104 129.908 128.658 130.251C129.211 130.594 129.634 131.076 129.928 131.695C130.221 132.31 130.368 133.029 130.368 133.854V134.708H124.084C124.101 135.777 124.366 136.59 124.881 137.149C125.396 137.708 126.12 137.987 127.056 137.987C127.631 137.987 128.14 137.935 128.583 137.83C129.026 137.724 129.485 137.569 129.961 137.365V138.577C129.502 138.781 129.045 138.931 128.591 139.025C128.143 139.119 127.612 139.166 126.998 139.166C126.123 139.166 125.36 138.989 124.707 138.635C124.059 138.275 123.556 137.749 123.196 137.058C122.836 136.366 122.656 135.519 122.656 134.518C122.656 133.538 122.819 132.691 123.146 131.978C123.478 131.258 123.943 130.705 124.541 130.317C125.144 129.93 125.852 129.736 126.666 129.736ZM126.649 130.865C125.913 130.865 125.326 131.106 124.889 131.587C124.452 132.069 124.192 132.741 124.109 133.604H128.923C128.918 133.062 128.832 132.586 128.666 132.177C128.506 131.762 128.259 131.441 127.927 131.214C127.595 130.981 127.169 130.865 126.649 130.865ZM135.946 139.166C134.795 139.166 133.882 138.773 133.207 137.987C132.537 137.201 132.202 136.034 132.202 134.484C132.202 132.918 132.545 131.737 133.231 130.94C133.918 130.138 134.831 129.736 135.971 129.736C136.452 129.736 136.873 129.8 137.232 129.927C137.592 130.055 137.902 130.226 138.162 130.442C138.422 130.652 138.641 130.893 138.818 131.164H138.917C138.895 130.993 138.873 130.757 138.851 130.458C138.829 130.16 138.818 129.916 138.818 129.728V126.084H140.196V139H139.083L138.876 137.705H138.818C138.646 137.976 138.428 138.222 138.162 138.444C137.902 138.665 137.589 138.842 137.224 138.975C136.864 139.102 136.438 139.166 135.946 139.166ZM136.162 138.021C137.136 138.021 137.825 137.744 138.229 137.19C138.632 136.637 138.834 135.815 138.834 134.725V134.476C138.834 133.319 138.641 132.431 138.253 131.812C137.872 131.192 137.174 130.882 136.162 130.882C135.315 130.882 134.681 131.208 134.261 131.861C133.84 132.509 133.63 133.394 133.63 134.518C133.63 135.635 133.837 136.499 134.252 137.107C134.673 137.716 135.309 138.021 136.162 138.021ZM148.912 129.902V139H147.534V129.902H148.912ZM148.239 126.499C148.466 126.499 148.66 126.574 148.82 126.723C148.986 126.867 149.069 127.094 149.069 127.404C149.069 127.708 148.986 127.935 148.82 128.084C148.66 128.234 148.466 128.309 148.239 128.309C148.001 128.309 147.802 128.234 147.642 128.084C147.487 127.935 147.409 127.708 147.409 127.404C147.409 127.094 147.487 126.867 147.642 126.723C147.802 126.574 148.001 126.499 148.239 126.499ZM161.711 129.736C162.713 129.736 163.468 129.999 163.978 130.525C164.487 131.045 164.741 131.883 164.741 133.04V139H163.38V133.106C163.38 132.37 163.219 131.82 162.898 131.455C162.583 131.084 162.113 130.898 161.487 130.898C160.607 130.898 159.968 131.153 159.57 131.662C159.171 132.171 158.972 132.921 158.972 133.912V139H157.603V133.106C157.603 132.614 157.531 132.204 157.387 131.878C157.248 131.551 157.038 131.308 156.756 131.147C156.479 130.981 156.128 130.898 155.702 130.898C155.098 130.898 154.614 131.023 154.249 131.272C153.884 131.521 153.618 131.892 153.452 132.384C153.292 132.871 153.211 133.472 153.211 134.186V139H151.833V129.902H152.946L153.153 131.189H153.228C153.411 130.874 153.64 130.608 153.917 130.392C154.194 130.176 154.504 130.013 154.847 129.902C155.19 129.792 155.555 129.736 155.942 129.736C156.634 129.736 157.212 129.866 157.677 130.126C158.148 130.381 158.488 130.771 158.698 131.297H158.773C159.072 130.771 159.481 130.381 160.001 130.126C160.522 129.866 161.092 129.736 161.711 129.736ZM171.847 129.736C172.981 129.736 173.886 130.126 174.561 130.907C175.236 131.687 175.574 132.86 175.574 134.426C175.574 135.461 175.419 136.33 175.109 137.033C174.799 137.736 174.362 138.267 173.797 138.626C173.238 138.986 172.577 139.166 171.813 139.166C171.332 139.166 170.909 139.102 170.543 138.975C170.178 138.848 169.866 138.676 169.605 138.46C169.345 138.245 169.13 138.009 168.958 137.755H168.858C168.875 137.971 168.894 138.231 168.917 138.535C168.944 138.84 168.958 139.105 168.958 139.332V143.067H167.572V129.902H168.709L168.892 131.247H168.958C169.135 130.97 169.351 130.719 169.605 130.492C169.86 130.259 170.17 130.077 170.535 129.944C170.906 129.806 171.343 129.736 171.847 129.736ZM171.606 130.898C170.975 130.898 170.466 131.02 170.079 131.264C169.697 131.507 169.417 131.872 169.24 132.359C169.063 132.841 168.969 133.447 168.958 134.177V134.443C168.958 135.212 169.041 135.862 169.207 136.394C169.379 136.925 169.658 137.329 170.045 137.605C170.438 137.882 170.964 138.021 171.623 138.021C172.187 138.021 172.657 137.868 173.034 137.564C173.41 137.26 173.689 136.836 173.872 136.294C174.06 135.746 174.154 135.118 174.154 134.41C174.154 133.336 173.944 132.484 173.523 131.853C173.108 131.217 172.469 130.898 171.606 130.898ZM181.484 129.736C182.259 129.736 182.923 129.908 183.476 130.251C184.029 130.594 184.453 131.076 184.746 131.695C185.039 132.31 185.186 133.029 185.186 133.854V134.708H178.902C178.919 135.777 179.185 136.59 179.699 137.149C180.214 137.708 180.939 137.987 181.874 137.987C182.45 137.987 182.959 137.935 183.401 137.83C183.844 137.724 184.303 137.569 184.779 137.365V138.577C184.32 138.781 183.863 138.931 183.41 139.025C182.961 139.119 182.43 139.166 181.816 139.166C180.942 139.166 180.178 138.989 179.525 138.635C178.877 138.275 178.374 137.749 178.014 137.058C177.654 136.366 177.475 135.519 177.475 134.518C177.475 133.538 177.638 132.691 177.964 131.978C178.296 131.258 178.761 130.705 179.359 130.317C179.962 129.93 180.67 129.736 181.484 129.736ZM181.467 130.865C180.731 130.865 180.145 131.106 179.708 131.587C179.27 132.069 179.01 132.741 178.927 133.604H183.742C183.736 133.062 183.65 132.586 183.484 132.177C183.324 131.762 183.078 131.441 182.746 131.214C182.414 130.981 181.987 130.865 181.467 130.865ZM190.764 139.166C189.613 139.166 188.7 138.773 188.025 137.987C187.355 137.201 187.021 136.034 187.021 134.484C187.021 132.918 187.364 131.737 188.05 130.94C188.736 130.138 189.649 129.736 190.789 129.736C191.271 129.736 191.691 129.8 192.051 129.927C192.41 130.055 192.72 130.226 192.98 130.442C193.241 130.652 193.459 130.893 193.636 131.164H193.736C193.714 130.993 193.692 130.757 193.669 130.458C193.647 130.16 193.636 129.916 193.636 129.728V126.084H195.014V139H193.902L193.694 137.705H193.636C193.465 137.976 193.246 138.222 192.98 138.444C192.72 138.665 192.408 138.842 192.042 138.975C191.683 139.102 191.257 139.166 190.764 139.166ZM190.98 138.021C191.954 138.021 192.643 137.744 193.047 137.19C193.451 136.637 193.653 135.815 193.653 134.725V134.476C193.653 133.319 193.459 132.431 193.072 131.812C192.69 131.192 191.993 130.882 190.98 130.882C190.133 130.882 189.5 131.208 189.079 131.861C188.659 132.509 188.448 133.394 188.448 134.518C188.448 135.635 188.656 136.499 189.071 137.107C189.491 137.716 190.128 138.021 190.98 138.021ZM199.314 129.902V139H197.936V129.902H199.314ZM198.642 126.499C198.868 126.499 199.062 126.574 199.223 126.723C199.389 126.867 199.472 127.094 199.472 127.404C199.472 127.708 199.389 127.935 199.223 128.084C199.062 128.234 198.868 128.309 198.642 128.309C198.404 128.309 198.204 128.234 198.044 128.084C197.889 127.935 197.812 127.708 197.812 127.404C197.812 127.094 197.889 126.867 198.044 126.723C198.204 126.574 198.404 126.499 198.642 126.499ZM205.174 138.037C205.401 138.037 205.634 138.018 205.872 137.979C206.11 137.94 206.303 137.893 206.453 137.838V138.909C206.292 138.981 206.068 139.042 205.78 139.091C205.498 139.141 205.221 139.166 204.95 139.166C204.469 139.166 204.032 139.083 203.639 138.917C203.246 138.745 202.93 138.458 202.692 138.054C202.46 137.65 202.344 137.091 202.344 136.377V130.981H201.049V130.309L202.352 129.77L202.9 127.794H203.73V129.902H206.395V130.981H203.73V136.335C203.73 136.905 203.86 137.332 204.12 137.614C204.386 137.896 204.737 138.037 205.174 138.037ZM222.589 129.736C223.591 129.736 224.346 129.999 224.855 130.525C225.365 131.045 225.619 131.883 225.619 133.04V139H224.258V133.106C224.258 132.37 224.097 131.82 223.776 131.455C223.461 131.084 222.991 130.898 222.365 130.898C221.485 130.898 220.846 131.153 220.448 131.662C220.049 132.171 219.85 132.921 219.85 133.912V139H218.48V133.106C218.48 132.614 218.409 132.204 218.265 131.878C218.126 131.551 217.916 131.308 217.634 131.147C217.357 130.981 217.006 130.898 216.58 130.898C215.976 130.898 215.492 131.023 215.127 131.272C214.762 131.521 214.496 131.892 214.33 132.384C214.17 132.871 214.089 133.472 214.089 134.186V139H212.711V129.902H213.824L214.031 131.189H214.106C214.289 130.874 214.518 130.608 214.795 130.392C215.072 130.176 215.382 130.013 215.725 129.902C216.068 129.792 216.433 129.736 216.82 129.736C217.512 129.736 218.09 129.866 218.555 130.126C219.026 130.381 219.366 130.771 219.576 131.297H219.651C219.95 130.771 220.359 130.381 220.879 130.126C221.4 129.866 221.97 129.736 222.589 129.736ZM236.294 134.435C236.294 135.182 236.197 135.848 236.003 136.435C235.81 137.022 235.53 137.517 235.165 137.921C234.8 138.325 234.357 138.635 233.837 138.851C233.322 139.061 232.738 139.166 232.085 139.166C231.477 139.166 230.918 139.061 230.409 138.851C229.905 138.635 229.468 138.325 229.097 137.921C228.732 137.517 228.447 137.022 228.242 136.435C228.043 135.848 227.943 135.182 227.943 134.435C227.943 133.438 228.112 132.592 228.45 131.895C228.787 131.192 229.269 130.658 229.894 130.292C230.525 129.922 231.275 129.736 232.144 129.736C232.974 129.736 233.699 129.922 234.318 130.292C234.944 130.663 235.428 131.2 235.771 131.903C236.12 132.6 236.294 133.444 236.294 134.435ZM229.371 134.435C229.371 135.165 229.468 135.799 229.662 136.335C229.855 136.872 230.154 137.287 230.558 137.581C230.962 137.874 231.482 138.021 232.119 138.021C232.75 138.021 233.267 137.874 233.671 137.581C234.08 137.287 234.382 136.872 234.576 136.335C234.769 135.799 234.866 135.165 234.866 134.435C234.866 133.71 234.769 133.084 234.576 132.559C234.382 132.027 234.083 131.618 233.679 131.33C233.275 131.042 232.752 130.898 232.11 130.898C231.164 130.898 230.47 131.211 230.027 131.836C229.59 132.462 229.371 133.328 229.371 134.435ZM240.062 139H238.676V126.084H240.062V139ZM244.362 139H242.976V126.084H244.362V139ZM248.654 129.902V139H247.276V129.902H248.654ZM247.981 126.499C248.208 126.499 248.402 126.574 248.562 126.723C248.729 126.867 248.812 127.094 248.812 127.404C248.812 127.708 248.729 127.935 248.562 128.084C248.402 128.234 248.208 128.309 247.981 128.309C247.743 128.309 247.544 128.234 247.384 128.084C247.229 127.935 247.151 127.708 247.151 127.404C247.151 127.094 247.229 126.867 247.384 126.723C247.544 126.574 247.743 126.499 247.981 126.499ZM254.514 138.037C254.741 138.037 254.973 138.018 255.211 137.979C255.449 137.94 255.643 137.893 255.792 137.838V138.909C255.632 138.981 255.408 139.042 255.12 139.091C254.838 139.141 254.561 139.166 254.29 139.166C253.809 139.166 253.371 139.083 252.979 138.917C252.586 138.745 252.27 138.458 252.032 138.054C251.8 137.65 251.684 137.091 251.684 136.377V130.981H250.389V130.309L251.692 129.77L252.24 127.794H253.07V129.902H255.734V130.981H253.07V136.335C253.07 136.905 253.2 137.332 253.46 137.614C253.726 137.896 254.077 138.037 254.514 138.037ZM259.013 129.902V139H257.635V129.902H259.013ZM258.341 126.499C258.568 126.499 258.761 126.574 258.922 126.723C259.088 126.867 259.171 127.094 259.171 127.404C259.171 127.708 259.088 127.935 258.922 128.084C258.761 128.234 258.568 128.309 258.341 128.309C258.103 128.309 257.904 128.234 257.743 128.084C257.588 127.935 257.511 127.708 257.511 127.404C257.511 127.094 257.588 126.867 257.743 126.723C257.904 126.574 258.103 126.499 258.341 126.499ZM265.338 129.753C266.423 129.753 267.228 129.996 267.754 130.483C268.28 130.97 268.542 131.748 268.542 132.816V139H267.538L267.272 137.655H267.206C266.951 137.987 266.686 138.267 266.409 138.494C266.132 138.715 265.812 138.884 265.446 139C265.087 139.111 264.644 139.166 264.118 139.166C263.565 139.166 263.072 139.069 262.641 138.875C262.215 138.682 261.877 138.389 261.628 137.996C261.384 137.603 261.263 137.105 261.263 136.501C261.263 135.594 261.622 134.897 262.342 134.41C263.061 133.923 264.157 133.657 265.629 133.613L267.198 133.546V132.99C267.198 132.204 267.029 131.654 266.691 131.338C266.354 131.023 265.878 130.865 265.264 130.865C264.788 130.865 264.334 130.934 263.902 131.073C263.471 131.211 263.061 131.374 262.674 131.562L262.25 130.517C262.66 130.306 263.13 130.126 263.662 129.977C264.193 129.828 264.752 129.753 265.338 129.753ZM267.181 134.518L265.795 134.576C264.66 134.62 263.861 134.805 263.396 135.132C262.931 135.458 262.699 135.92 262.699 136.518C262.699 137.038 262.856 137.423 263.172 137.672C263.487 137.921 263.905 138.045 264.425 138.045C265.233 138.045 265.895 137.821 266.409 137.373C266.924 136.925 267.181 136.252 267.181 135.356V134.518ZM279.035 139.166C277.884 139.166 276.971 138.773 276.295 137.987C275.626 137.201 275.291 136.034 275.291 134.484C275.291 132.918 275.634 131.737 276.32 130.94C277.007 130.138 277.92 129.736 279.06 129.736C279.541 129.736 279.962 129.8 280.321 129.927C280.681 130.055 280.991 130.226 281.251 130.442C281.511 130.652 281.73 130.893 281.907 131.164H282.006C281.984 130.993 281.962 130.757 281.94 130.458C281.918 130.16 281.907 129.916 281.907 129.728V126.084H283.285V139H282.172L281.965 137.705H281.907C281.735 137.976 281.517 138.222 281.251 138.444C280.991 138.665 280.678 138.842 280.313 138.975C279.953 139.102 279.527 139.166 279.035 139.166ZM279.25 138.021C280.224 138.021 280.913 137.744 281.317 137.19C281.721 136.637 281.923 135.815 281.923 134.725V134.476C281.923 133.319 281.73 132.431 281.342 131.812C280.96 131.192 280.263 130.882 279.25 130.882C278.404 130.882 277.77 131.208 277.35 131.861C276.929 132.509 276.719 133.394 276.719 134.518C276.719 135.635 276.926 136.499 277.341 137.107C277.762 137.716 278.398 138.021 279.25 138.021ZM287.584 129.902V139H286.207V129.902H287.584ZM286.912 126.499C287.139 126.499 287.333 126.574 287.493 126.723C287.659 126.867 287.742 127.094 287.742 127.404C287.742 127.708 287.659 127.935 287.493 128.084C287.333 128.234 287.139 128.309 286.912 128.309C286.674 128.309 286.475 128.234 286.314 128.084C286.16 127.935 286.082 127.708 286.082 127.404C286.082 127.094 286.16 126.867 286.314 126.723C286.475 126.574 286.674 126.499 286.912 126.499ZM294.15 139.166C293.331 139.166 292.609 138.997 291.984 138.66C291.359 138.322 290.872 137.807 290.523 137.116C290.174 136.424 290 135.552 290 134.501C290 133.4 290.183 132.5 290.548 131.803C290.919 131.1 291.428 130.58 292.075 130.243C292.723 129.905 293.459 129.736 294.283 129.736C294.737 129.736 295.174 129.783 295.595 129.877C296.021 129.966 296.369 130.079 296.641 130.218L296.226 131.372C295.949 131.261 295.628 131.161 295.263 131.073C294.903 130.984 294.565 130.94 294.25 130.94C293.619 130.94 293.093 131.076 292.673 131.347C292.258 131.618 291.945 132.016 291.735 132.542C291.53 133.068 291.428 133.715 291.428 134.484C291.428 135.22 291.527 135.848 291.727 136.369C291.931 136.889 292.233 137.287 292.631 137.564C293.035 137.835 293.539 137.971 294.142 137.971C294.624 137.971 295.058 137.921 295.445 137.821C295.833 137.716 296.184 137.594 296.5 137.456V138.685C296.195 138.84 295.855 138.958 295.479 139.042C295.108 139.125 294.665 139.166 294.15 139.166ZM301.596 138.037C301.823 138.037 302.056 138.018 302.293 137.979C302.531 137.94 302.725 137.893 302.875 137.838V138.909C302.714 138.981 302.49 139.042 302.202 139.091C301.92 139.141 301.643 139.166 301.372 139.166C300.891 139.166 300.453 139.083 300.061 138.917C299.668 138.745 299.352 138.458 299.114 138.054C298.882 137.65 298.766 137.091 298.766 136.377V130.981H297.471V130.309L298.774 129.77L299.322 127.794H300.152V129.902H302.816V130.981H300.152V136.335C300.152 136.905 300.282 137.332 300.542 137.614C300.808 137.896 301.159 138.037 301.596 138.037ZM308.121 129.753C309.205 129.753 310.01 129.996 310.536 130.483C311.062 130.97 311.325 131.748 311.325 132.816V139H310.32L310.055 137.655H309.988C309.734 137.987 309.468 138.267 309.191 138.494C308.915 138.715 308.594 138.884 308.229 139C307.869 139.111 307.426 139.166 306.9 139.166C306.347 139.166 305.854 139.069 305.423 138.875C304.997 138.682 304.659 138.389 304.41 137.996C304.167 137.603 304.045 137.105 304.045 136.501C304.045 135.594 304.405 134.897 305.124 134.41C305.843 133.923 306.939 133.657 308.411 133.613L309.98 133.546V132.99C309.98 132.204 309.811 131.654 309.474 131.338C309.136 131.023 308.66 130.865 308.046 130.865C307.57 130.865 307.116 130.934 306.685 131.073C306.253 131.211 305.843 131.374 305.456 131.562L305.033 130.517C305.442 130.306 305.913 130.126 306.444 129.977C306.975 129.828 307.534 129.753 308.121 129.753ZM309.963 134.518L308.577 134.576C307.443 134.62 306.643 134.805 306.178 135.132C305.713 135.458 305.481 135.92 305.481 136.518C305.481 137.038 305.639 137.423 305.954 137.672C306.27 137.921 306.687 138.045 307.208 138.045C308.015 138.045 308.677 137.821 309.191 137.373C309.706 136.925 309.963 136.252 309.963 135.356V134.518ZM40.5864 155.736C40.769 155.736 40.96 155.747 41.1592 155.77C41.3584 155.786 41.5355 155.811 41.6904 155.844L41.5161 157.123C41.3667 157.084 41.2007 157.053 41.0181 157.031C40.8354 157.009 40.6639 156.998 40.5034 156.998C40.1382 156.998 39.7923 157.073 39.4658 157.222C39.1449 157.366 38.8626 157.576 38.6191 157.853C38.3757 158.124 38.1847 158.453 38.0464 158.841C37.908 159.223 37.8389 159.649 37.8389 160.119V165H36.4526V155.902H37.5981L37.7476 157.579H37.8057C37.9938 157.242 38.2207 156.934 38.4863 156.658C38.752 156.375 39.0591 156.151 39.4077 155.985C39.7619 155.819 40.1548 155.736 40.5864 155.736ZM46.9116 155.736C47.6864 155.736 48.3504 155.908 48.9038 156.251C49.4572 156.594 49.8805 157.076 50.1738 157.695C50.4671 158.31 50.6138 159.029 50.6138 159.854V160.708H44.3301C44.3467 161.777 44.6123 162.59 45.127 163.149C45.6416 163.708 46.3665 163.987 47.3018 163.987C47.8773 163.987 48.3864 163.935 48.8291 163.83C49.2718 163.724 49.7311 163.569 50.207 163.365V164.577C49.7477 164.781 49.2912 164.931 48.8374 165.025C48.3892 165.119 47.8579 165.166 47.2437 165.166C46.3693 165.166 45.6056 164.989 44.9526 164.635C44.3052 164.275 43.8016 163.749 43.4419 163.058C43.0822 162.366 42.9023 161.519 42.9023 160.518C42.9023 159.538 43.0656 158.691 43.3921 157.978C43.7241 157.258 44.189 156.705 44.7866 156.317C45.3898 155.93 46.0981 155.736 46.9116 155.736ZM46.895 156.865C46.159 156.865 45.5724 157.106 45.1353 157.587C44.6981 158.069 44.438 158.741 44.355 159.604H49.1694C49.1639 159.062 49.0781 158.586 48.9121 158.177C48.7516 157.762 48.5054 157.441 48.1733 157.214C47.8413 156.981 47.4152 156.865 46.895 156.865ZM57.0884 155.736C57.271 155.736 57.4619 155.747 57.6611 155.77C57.8604 155.786 58.0374 155.811 58.1924 155.844L58.0181 157.123C57.8687 157.084 57.7026 157.053 57.52 157.031C57.3374 157.009 57.1659 156.998 57.0054 156.998C56.6401 156.998 56.2943 157.073 55.9678 157.222C55.6468 157.366 55.3646 157.576 55.1211 157.853C54.8776 158.124 54.6867 158.453 54.5483 158.841C54.41 159.223 54.3408 159.649 54.3408 160.119V165H52.9546V155.902H54.1001L54.2495 157.579H54.3076C54.4958 157.242 54.7227 156.934 54.9883 156.658C55.2539 156.375 55.561 156.151 55.9097 155.985C56.2638 155.819 56.6567 155.736 57.0884 155.736ZM67.4229 155.902V165H66.2939L66.0947 163.722H66.02C65.8319 164.037 65.5884 164.303 65.2896 164.519C64.9907 164.734 64.6532 164.895 64.2769 165C63.9061 165.111 63.5104 165.166 63.0898 165.166C62.3704 165.166 61.7673 165.05 61.2803 164.817C60.7933 164.585 60.4253 164.225 60.1763 163.738C59.9328 163.251 59.811 162.626 59.811 161.862V155.902H61.2056V161.763C61.2056 162.521 61.3771 163.088 61.7202 163.464C62.0633 163.835 62.5863 164.021 63.2891 164.021C63.9642 164.021 64.501 163.893 64.8994 163.639C65.3034 163.384 65.5939 163.011 65.771 162.518C65.9481 162.02 66.0366 161.411 66.0366 160.692V155.902H67.4229ZM80.2144 155.736C81.216 155.736 81.9714 155.999 82.4805 156.525C82.9896 157.045 83.2441 157.883 83.2441 159.04V165H81.8828V159.106C81.8828 158.37 81.7223 157.82 81.4014 157.455C81.0859 157.084 80.6156 156.898 79.9902 156.898C79.1104 156.898 78.4712 157.153 78.0728 157.662C77.6743 158.171 77.4751 158.921 77.4751 159.912V165H76.1055V159.106C76.1055 158.614 76.0335 158.204 75.8896 157.878C75.7513 157.551 75.541 157.308 75.2588 157.147C74.9821 156.981 74.6307 156.898 74.2046 156.898C73.6014 156.898 73.1172 157.023 72.752 157.272C72.3867 157.521 72.1211 157.892 71.9551 158.384C71.7946 158.871 71.7144 159.472 71.7144 160.186V165H70.3364V155.902H71.4487L71.6562 157.189H71.731C71.9136 156.874 72.1432 156.608 72.4199 156.392C72.6966 156.176 73.0065 156.013 73.3496 155.902C73.6927 155.792 74.0579 155.736 74.4453 155.736C75.137 155.736 75.7153 155.866 76.1802 156.126C76.6506 156.381 76.9909 156.771 77.2012 157.297H77.2759C77.5747 156.771 77.9842 156.381 78.5044 156.126C79.0246 155.866 79.5946 155.736 80.2144 155.736ZM92.4912 165L89.0381 155.902H90.5156L92.5161 161.406C92.6545 161.782 92.7956 162.197 92.9395 162.651C93.0833 163.105 93.1829 163.47 93.2383 163.747H93.2964C93.3628 163.47 93.4735 163.105 93.6284 162.651C93.7834 162.192 93.9245 161.777 94.0518 161.406L96.0522 155.902H97.5298L94.0684 165H92.4912ZM102.494 155.736C103.268 155.736 103.932 155.908 104.486 156.251C105.039 156.594 105.463 157.076 105.756 157.695C106.049 158.31 106.196 159.029 106.196 159.854V160.708H99.9121C99.9287 161.777 100.194 162.59 100.709 163.149C101.224 163.708 101.949 163.987 102.884 163.987C103.459 163.987 103.968 163.935 104.411 163.83C104.854 163.724 105.313 163.569 105.789 163.365V164.577C105.33 164.781 104.873 164.931 104.419 165.025C103.971 165.119 103.44 165.166 102.826 165.166C101.951 165.166 101.188 164.989 100.535 164.635C99.8872 164.275 99.3836 163.749 99.0239 163.058C98.6642 162.366 98.4844 161.519 98.4844 160.518C98.4844 159.538 98.6476 158.691 98.9741 157.978C99.3062 157.258 99.771 156.705 100.369 156.317C100.972 155.93 101.68 155.736 102.494 155.736ZM102.477 156.865C101.741 156.865 101.154 157.106 100.717 157.587C100.28 158.069 100.02 158.741 99.937 159.604H104.751C104.746 159.062 104.66 158.586 104.494 158.177C104.334 157.762 104.087 157.441 103.755 157.214C103.423 156.981 102.997 156.865 102.477 156.865ZM112.67 155.736C112.853 155.736 113.044 155.747 113.243 155.77C113.442 155.786 113.619 155.811 113.774 155.844L113.6 157.123C113.451 157.084 113.285 157.053 113.102 157.031C112.919 157.009 112.748 156.998 112.587 156.998C112.222 156.998 111.876 157.073 111.55 157.222C111.229 157.366 110.947 157.576 110.703 157.853C110.46 158.124 110.269 158.453 110.13 158.841C109.992 159.223 109.923 159.649 109.923 160.119V165H108.537V155.902H109.682L109.832 157.579H109.89C110.078 157.242 110.305 156.934 110.57 156.658C110.836 156.375 111.143 156.151 111.492 155.985C111.846 155.819 112.239 155.736 112.67 155.736ZM123.337 160.435C123.337 161.182 123.24 161.848 123.046 162.435C122.853 163.022 122.573 163.517 122.208 163.921C121.843 164.325 121.4 164.635 120.88 164.851C120.365 165.061 119.781 165.166 119.128 165.166C118.52 165.166 117.961 165.061 117.452 164.851C116.948 164.635 116.511 164.325 116.14 163.921C115.775 163.517 115.49 163.022 115.285 162.435C115.086 161.848 114.986 161.182 114.986 160.435C114.986 159.438 115.155 158.592 115.493 157.895C115.83 157.192 116.312 156.658 116.937 156.292C117.568 155.922 118.318 155.736 119.187 155.736C120.017 155.736 120.742 155.922 121.361 156.292C121.987 156.663 122.471 157.2 122.814 157.903C123.163 158.6 123.337 159.444 123.337 160.435ZM116.414 160.435C116.414 161.165 116.511 161.799 116.705 162.335C116.898 162.872 117.197 163.287 117.601 163.581C118.005 163.874 118.525 164.021 119.162 164.021C119.792 164.021 120.31 163.874 120.714 163.581C121.123 163.287 121.425 162.872 121.619 162.335C121.812 161.799 121.909 161.165 121.909 160.435C121.909 159.71 121.812 159.084 121.619 158.559C121.425 158.027 121.126 157.618 120.722 157.33C120.318 157.042 119.795 156.898 119.153 156.898C118.207 156.898 117.513 157.211 117.07 157.836C116.633 158.462 116.414 159.328 116.414 160.435ZM133.539 155.753C134.623 155.753 135.428 155.996 135.954 156.483C136.48 156.97 136.743 157.748 136.743 158.816V165H135.738L135.473 163.655H135.406C135.152 163.987 134.886 164.267 134.609 164.494C134.333 164.715 134.012 164.884 133.646 165C133.287 165.111 132.844 165.166 132.318 165.166C131.765 165.166 131.272 165.069 130.841 164.875C130.415 164.682 130.077 164.389 129.828 163.996C129.585 163.603 129.463 163.105 129.463 162.501C129.463 161.594 129.823 160.897 130.542 160.41C131.261 159.923 132.357 159.657 133.829 159.613L135.398 159.546V158.99C135.398 158.204 135.229 157.654 134.892 157.338C134.554 157.023 134.078 156.865 133.464 156.865C132.988 156.865 132.534 156.934 132.103 157.073C131.671 157.211 131.261 157.374 130.874 157.562L130.451 156.517C130.86 156.306 131.331 156.126 131.862 155.977C132.393 155.828 132.952 155.753 133.539 155.753ZM135.381 160.518L133.995 160.576C132.861 160.62 132.061 160.805 131.596 161.132C131.131 161.458 130.899 161.92 130.899 162.518C130.899 163.038 131.057 163.423 131.372 163.672C131.688 163.921 132.105 164.045 132.625 164.045C133.433 164.045 134.095 163.821 134.609 163.373C135.124 162.925 135.381 162.252 135.381 161.356V160.518ZM147.094 155.902V165H145.965L145.766 163.722H145.691C145.503 164.037 145.259 164.303 144.96 164.519C144.662 164.734 144.324 164.895 143.948 165C143.577 165.111 143.181 165.166 142.761 165.166C142.041 165.166 141.438 165.05 140.951 164.817C140.464 164.585 140.096 164.225 139.847 163.738C139.604 163.251 139.482 162.626 139.482 161.862V155.902H140.876V161.763C140.876 162.521 141.048 163.088 141.391 163.464C141.734 163.835 142.257 164.021 142.96 164.021C143.635 164.021 144.172 163.893 144.57 163.639C144.974 163.384 145.265 163.011 145.442 162.518C145.619 162.02 145.708 161.411 145.708 160.692V155.902H147.094ZM152.946 164.037C153.173 164.037 153.405 164.018 153.643 163.979C153.881 163.94 154.075 163.893 154.224 163.838V164.909C154.064 164.981 153.84 165.042 153.552 165.091C153.27 165.141 152.993 165.166 152.722 165.166C152.24 165.166 151.803 165.083 151.41 164.917C151.017 164.745 150.702 164.458 150.464 164.054C150.231 163.65 150.115 163.091 150.115 162.377V156.981H148.82V156.309L150.124 155.77L150.671 153.794H151.501V155.902H154.166V156.981H151.501V162.335C151.501 162.905 151.632 163.332 151.892 163.614C152.157 163.896 152.509 164.037 152.946 164.037ZM161.861 155.902V165H160.483V155.902H161.861ZM161.188 152.499C161.415 152.499 161.609 152.574 161.77 152.723C161.936 152.867 162.019 153.094 162.019 153.404C162.019 153.708 161.936 153.935 161.77 154.084C161.609 154.234 161.415 154.309 161.188 154.309C160.951 154.309 160.751 154.234 160.591 154.084C160.436 153.935 160.358 153.708 160.358 153.404C160.358 153.094 160.436 152.867 160.591 152.723C160.751 152.574 160.951 152.499 161.188 152.499ZM169.091 155.736C170.17 155.736 170.986 156.002 171.54 156.533C172.093 157.059 172.37 157.906 172.37 159.073V165H171.008V159.165C171.008 158.406 170.834 157.839 170.485 157.463C170.142 157.087 169.614 156.898 168.9 156.898C167.893 156.898 167.184 157.183 166.775 157.753C166.365 158.323 166.161 159.151 166.161 160.235V165H164.783V155.902H165.895L166.103 157.214H166.177C166.371 156.893 166.617 156.625 166.916 156.409C167.215 156.187 167.55 156.021 167.92 155.911C168.291 155.794 168.681 155.736 169.091 155.736ZM181.625 165L178.172 155.902H179.649L181.65 161.406C181.788 161.782 181.929 162.197 182.073 162.651C182.217 163.105 182.317 163.47 182.372 163.747H182.43C182.497 163.47 182.607 163.105 182.762 162.651C182.917 162.192 183.058 161.777 183.186 161.406L185.186 155.902H186.664L183.202 165H181.625ZM191.627 155.736C192.402 155.736 193.066 155.908 193.62 156.251C194.173 156.594 194.596 157.076 194.89 157.695C195.183 158.31 195.33 159.029 195.33 159.854V160.708H189.046C189.062 161.777 189.328 162.59 189.843 163.149C190.357 163.708 191.082 163.987 192.018 163.987C192.593 163.987 193.102 163.935 193.545 163.83C193.988 163.724 194.447 163.569 194.923 163.365V164.577C194.464 164.781 194.007 164.931 193.553 165.025C193.105 165.119 192.574 165.166 191.959 165.166C191.085 165.166 190.321 164.989 189.668 164.635C189.021 164.275 188.517 163.749 188.158 163.058C187.798 162.366 187.618 161.519 187.618 160.518C187.618 159.538 187.781 158.691 188.108 157.978C188.44 157.258 188.905 156.705 189.502 156.317C190.106 155.93 190.814 155.736 191.627 155.736ZM191.611 156.865C190.875 156.865 190.288 157.106 189.851 157.587C189.414 158.069 189.154 158.741 189.071 159.604H193.885C193.88 159.062 193.794 158.586 193.628 158.177C193.467 157.762 193.221 157.441 192.889 157.214C192.557 156.981 192.131 156.865 191.611 156.865ZM199.057 165H197.67V152.084H199.057V165ZM201.763 164.137C201.763 163.749 201.857 163.475 202.045 163.315C202.233 163.149 202.463 163.066 202.734 163.066C203.016 163.066 203.254 163.149 203.448 163.315C203.641 163.475 203.738 163.749 203.738 164.137C203.738 164.519 203.641 164.798 203.448 164.975C203.254 165.147 203.016 165.232 202.734 165.232C202.463 165.232 202.233 165.147 202.045 164.975C201.857 164.798 201.763 164.519 201.763 164.137ZM217.908 161.771C217.908 162.49 217.728 163.105 217.368 163.614C217.014 164.117 216.516 164.502 215.874 164.768C215.232 165.033 214.477 165.166 213.608 165.166C213.149 165.166 212.714 165.144 212.305 165.1C211.895 165.055 211.519 164.992 211.176 164.909C210.833 164.826 210.531 164.723 210.271 164.602V163.249C210.686 163.42 211.192 163.581 211.79 163.73C212.388 163.874 213.013 163.946 213.666 163.946C214.275 163.946 214.789 163.866 215.21 163.705C215.631 163.539 215.949 163.304 216.165 163C216.386 162.69 216.497 162.319 216.497 161.887C216.497 161.472 216.405 161.126 216.223 160.85C216.04 160.567 215.736 160.313 215.31 160.086C214.889 159.854 214.313 159.607 213.583 159.347C213.068 159.165 212.615 158.965 212.222 158.75C211.829 158.528 211.5 158.279 211.234 158.002C210.968 157.726 210.766 157.405 210.628 157.04C210.495 156.674 210.429 156.257 210.429 155.786C210.429 155.139 210.592 154.585 210.918 154.126C211.25 153.661 211.707 153.307 212.288 153.063C212.875 152.814 213.547 152.69 214.305 152.69C214.953 152.69 215.55 152.751 216.098 152.873C216.652 152.994 217.158 153.158 217.617 153.362L217.177 154.574C216.74 154.392 216.275 154.239 215.783 154.118C215.296 153.996 214.792 153.935 214.272 153.935C213.752 153.935 213.312 154.013 212.952 154.167C212.598 154.317 212.327 154.53 212.139 154.807C211.951 155.083 211.856 155.413 211.856 155.794C211.856 156.221 211.945 156.575 212.122 156.857C212.305 157.139 212.592 157.391 212.985 157.612C213.384 157.828 213.91 158.055 214.562 158.293C215.276 158.553 215.882 158.83 216.38 159.123C216.878 159.411 217.257 159.765 217.518 160.186C217.778 160.601 217.908 161.129 217.908 161.771ZM223.685 155.736C224.46 155.736 225.124 155.908 225.677 156.251C226.231 156.594 226.654 157.076 226.947 157.695C227.241 158.31 227.387 159.029 227.387 159.854V160.708H221.104C221.12 161.777 221.386 162.59 221.9 163.149C222.415 163.708 223.14 163.987 224.075 163.987C224.651 163.987 225.16 163.935 225.603 163.83C226.045 163.724 226.505 163.569 226.98 163.365V164.577C226.521 164.781 226.065 164.931 225.611 165.025C225.163 165.119 224.631 165.166 224.017 165.166C223.143 165.166 222.379 164.989 221.726 164.635C221.079 164.275 220.575 163.749 220.215 163.058C219.856 162.366 219.676 161.519 219.676 160.518C219.676 159.538 219.839 158.691 220.166 157.978C220.498 157.258 220.962 156.705 221.56 156.317C222.163 155.93 222.872 155.736 223.685 155.736ZM223.668 156.865C222.932 156.865 222.346 157.106 221.909 157.587C221.472 158.069 221.211 158.741 221.128 159.604H225.943C225.937 159.062 225.852 158.586 225.686 158.177C225.525 157.762 225.279 157.441 224.947 157.214C224.615 156.981 224.189 156.865 223.668 156.865ZM232.965 165.166C231.814 165.166 230.901 164.773 230.226 163.987C229.556 163.201 229.222 162.034 229.222 160.484C229.222 158.918 229.565 157.737 230.251 156.94C230.937 156.138 231.85 155.736 232.99 155.736C233.472 155.736 233.892 155.8 234.252 155.927C234.612 156.055 234.922 156.226 235.182 156.442C235.442 156.652 235.66 156.893 235.837 157.164H235.937C235.915 156.993 235.893 156.757 235.871 156.458C235.848 156.16 235.837 155.916 235.837 155.728V152.084H237.215V165H236.103L235.896 163.705H235.837C235.666 163.976 235.447 164.222 235.182 164.444C234.922 164.665 234.609 164.842 234.244 164.975C233.884 165.102 233.458 165.166 232.965 165.166ZM233.181 164.021C234.155 164.021 234.844 163.744 235.248 163.19C235.652 162.637 235.854 161.815 235.854 160.725V160.476C235.854 159.319 235.66 158.431 235.273 157.812C234.891 157.192 234.194 156.882 233.181 156.882C232.334 156.882 231.701 157.208 231.28 157.861C230.86 158.509 230.649 159.394 230.649 160.518C230.649 161.635 230.857 162.499 231.272 163.107C231.693 163.716 232.329 164.021 233.181 164.021ZM247.791 165.166C246.639 165.166 245.726 164.773 245.051 163.987C244.382 163.201 244.047 162.034 244.047 160.484C244.047 158.918 244.39 157.737 245.076 156.94C245.762 156.138 246.675 155.736 247.815 155.736C248.297 155.736 248.717 155.8 249.077 155.927C249.437 156.055 249.747 156.226 250.007 156.442C250.267 156.652 250.486 156.893 250.663 157.164H250.762C250.74 156.993 250.718 156.757 250.696 156.458C250.674 156.16 250.663 155.916 250.663 155.728V152.084H252.041V165H250.928L250.721 163.705H250.663C250.491 163.976 250.272 164.222 250.007 164.444C249.747 164.665 249.434 164.842 249.069 164.975C248.709 165.102 248.283 165.166 247.791 165.166ZM248.006 164.021C248.98 164.021 249.669 163.744 250.073 163.19C250.477 162.637 250.679 161.815 250.679 160.725V160.476C250.679 159.319 250.486 158.431 250.098 157.812C249.716 157.192 249.019 156.882 248.006 156.882C247.16 156.882 246.526 157.208 246.105 157.861C245.685 158.509 245.475 159.394 245.475 160.518C245.475 161.635 245.682 162.499 246.097 163.107C246.518 163.716 247.154 164.021 248.006 164.021ZM262.807 160.435C262.807 161.182 262.71 161.848 262.516 162.435C262.322 163.022 262.043 163.517 261.678 163.921C261.312 164.325 260.87 164.635 260.35 164.851C259.835 165.061 259.251 165.166 258.598 165.166C257.989 165.166 257.431 165.061 256.921 164.851C256.418 164.635 255.981 164.325 255.61 163.921C255.245 163.517 254.96 163.022 254.755 162.435C254.556 161.848 254.456 161.182 254.456 160.435C254.456 159.438 254.625 158.592 254.962 157.895C255.3 157.192 255.781 156.658 256.407 156.292C257.038 155.922 257.787 155.736 258.656 155.736C259.486 155.736 260.211 155.922 260.831 156.292C261.456 156.663 261.941 157.2 262.284 157.903C262.632 158.6 262.807 159.444 262.807 160.435ZM255.884 160.435C255.884 161.165 255.981 161.799 256.174 162.335C256.368 162.872 256.667 163.287 257.071 163.581C257.475 163.874 257.995 164.021 258.631 164.021C259.262 164.021 259.78 163.874 260.184 163.581C260.593 163.287 260.895 162.872 261.088 162.335C261.282 161.799 261.379 161.165 261.379 160.435C261.379 159.71 261.282 159.084 261.088 158.559C260.895 158.027 260.596 157.618 260.192 157.33C259.788 157.042 259.265 156.898 258.623 156.898C257.677 156.898 256.982 157.211 256.54 157.836C256.102 158.462 255.884 159.328 255.884 160.435ZM266.575 165H265.189V152.084H266.575V165ZM277.333 160.435C277.333 161.182 277.236 161.848 277.042 162.435C276.849 163.022 276.569 163.517 276.204 163.921C275.839 164.325 275.396 164.635 274.876 164.851C274.361 165.061 273.778 165.166 273.125 165.166C272.516 165.166 271.957 165.061 271.448 164.851C270.944 164.635 270.507 164.325 270.136 163.921C269.771 163.517 269.486 163.022 269.281 162.435C269.082 161.848 268.982 161.182 268.982 160.435C268.982 159.438 269.151 158.592 269.489 157.895C269.826 157.192 270.308 156.658 270.933 156.292C271.564 155.922 272.314 155.736 273.183 155.736C274.013 155.736 274.738 155.922 275.357 156.292C275.983 156.663 276.467 157.2 276.81 157.903C277.159 158.6 277.333 159.444 277.333 160.435ZM270.41 160.435C270.41 161.165 270.507 161.799 270.701 162.335C270.894 162.872 271.193 163.287 271.597 163.581C272.001 163.874 272.521 164.021 273.158 164.021C273.789 164.021 274.306 163.874 274.71 163.581C275.119 163.287 275.421 162.872 275.615 162.335C275.808 161.799 275.905 161.165 275.905 160.435C275.905 159.71 275.808 159.084 275.615 158.559C275.421 158.027 275.122 157.618 274.718 157.33C274.314 157.042 273.791 156.898 273.149 156.898C272.203 156.898 271.509 157.211 271.066 157.836C270.629 158.462 270.41 159.328 270.41 160.435ZM283.849 155.736C284.032 155.736 284.223 155.747 284.422 155.77C284.621 155.786 284.798 155.811 284.953 155.844L284.779 157.123C284.629 157.084 284.463 157.053 284.281 157.031C284.098 157.009 283.927 156.998 283.766 156.998C283.401 156.998 283.055 157.073 282.729 157.222C282.408 157.366 282.125 157.576 281.882 157.853C281.638 158.124 281.447 158.453 281.309 158.841C281.171 159.223 281.102 159.649 281.102 160.119V165H279.715V155.902H280.861L281.01 157.579H281.068C281.257 157.242 281.483 156.934 281.749 156.658C282.015 156.375 282.322 156.151 282.67 155.985C283.025 155.819 283.417 155.736 283.849 155.736ZM39.9556 180.736C40.7303 180.736 41.3944 180.908 41.9478 181.251C42.5011 181.594 42.9245 182.076 43.2178 182.695C43.5111 183.31 43.6577 184.029 43.6577 184.854V185.708H37.374C37.3906 186.777 37.6562 187.59 38.1709 188.149C38.6855 188.708 39.4105 188.987 40.3457 188.987C40.9212 188.987 41.4303 188.935 41.873 188.83C42.3158 188.724 42.7751 188.569 43.251 188.365V189.577C42.7917 189.781 42.3351 189.931 41.8813 190.025C41.4331 190.119 40.9019 190.166 40.2876 190.166C39.4132 190.166 38.6496 189.989 37.9966 189.635C37.3491 189.275 36.8455 188.749 36.4858 188.058C36.1261 187.366 35.9463 186.519 35.9463 185.518C35.9463 184.538 36.1095 183.691 36.436 182.978C36.7681 182.258 37.2329 181.705 37.8306 181.317C38.4338 180.93 39.1421 180.736 39.9556 180.736ZM39.939 181.865C39.203 181.865 38.6164 182.106 38.1792 182.587C37.742 183.069 37.4819 183.741 37.3989 184.604H42.2134C42.2078 184.062 42.1221 183.586 41.9561 183.177C41.7956 182.762 41.5493 182.441 41.2173 182.214C40.8853 181.981 40.4591 181.865 39.939 181.865ZM50.3066 180.736C51.3857 180.736 52.202 181.002 52.7554 181.533C53.3088 182.059 53.5854 182.906 53.5854 184.073V190H52.2241V184.165C52.2241 183.406 52.0498 182.839 51.7012 182.463C51.3581 182.087 50.8296 181.898 50.1157 181.898C49.1086 181.898 48.4002 182.183 47.9907 182.753C47.5812 183.323 47.3765 184.151 47.3765 185.235V190H45.9985V180.902H47.1108L47.3184 182.214H47.3931C47.5868 181.893 47.833 181.625 48.1318 181.409C48.4307 181.187 48.7655 181.021 49.1362 180.911C49.507 180.794 49.8971 180.736 50.3066 180.736ZM57.8022 180.902V190H56.4243V180.902H57.8022ZM57.1299 177.499C57.3568 177.499 57.5505 177.574 57.7109 177.723C57.877 177.867 57.96 178.094 57.96 178.404C57.96 178.708 57.877 178.935 57.7109 179.084C57.5505 179.234 57.3568 179.309 57.1299 179.309C56.8919 179.309 56.6927 179.234 56.5322 179.084C56.3773 178.935 56.2998 178.708 56.2998 178.404C56.2998 178.094 56.3773 177.867 56.5322 177.723C56.6927 177.574 56.8919 177.499 57.1299 177.499ZM70.6021 180.736C71.6037 180.736 72.359 180.999 72.8682 181.525C73.3773 182.045 73.6318 182.883 73.6318 184.04V190H72.2705V184.106C72.2705 183.37 72.11 182.82 71.7891 182.455C71.4736 182.084 71.0033 181.898 70.3779 181.898C69.498 181.898 68.8589 182.153 68.4604 182.662C68.062 183.171 67.8628 183.921 67.8628 184.912V190H66.4932V184.106C66.4932 183.614 66.4212 183.204 66.2773 182.878C66.139 182.551 65.9287 182.308 65.6465 182.147C65.3698 181.981 65.0184 181.898 64.5923 181.898C63.9891 181.898 63.5049 182.023 63.1396 182.272C62.7744 182.521 62.5088 182.892 62.3428 183.384C62.1823 183.871 62.1021 184.472 62.1021 185.186V190H60.7241V180.902H61.8364L62.0439 182.189H62.1187C62.3013 181.874 62.5309 181.608 62.8076 181.392C63.0843 181.176 63.3942 181.013 63.7373 180.902C64.0804 180.792 64.4456 180.736 64.833 180.736C65.5247 180.736 66.103 180.866 66.5679 181.126C67.0382 181.381 67.3786 181.771 67.5889 182.297H67.6636C67.9624 181.771 68.3719 181.381 68.8921 181.126C69.4123 180.866 69.9823 180.736 70.6021 180.736ZM82.8789 190L79.4258 180.902H80.9033L82.9038 186.406C83.0422 186.782 83.1833 187.197 83.3271 187.651C83.471 188.105 83.5706 188.47 83.626 188.747H83.6841C83.7505 188.47 83.8612 188.105 84.0161 187.651C84.1711 187.192 84.3122 186.777 84.4395 186.406L86.4399 180.902H87.9175L84.4561 190H82.8789ZM97.2227 185.435C97.2227 186.182 97.1258 186.848 96.9321 187.435C96.7384 188.022 96.459 188.517 96.0938 188.921C95.7285 189.325 95.2858 189.635 94.7656 189.851C94.251 190.061 93.6672 190.166 93.0142 190.166C92.4054 190.166 91.8465 190.061 91.3374 189.851C90.8338 189.635 90.3966 189.325 90.0259 188.921C89.6606 188.517 89.3757 188.022 89.1709 187.435C88.9717 186.848 88.8721 186.182 88.8721 185.435C88.8721 184.438 89.0409 183.592 89.3784 182.895C89.716 182.192 90.1974 181.658 90.8228 181.292C91.4536 180.922 92.2035 180.736 93.0723 180.736C93.9023 180.736 94.6273 180.922 95.2471 181.292C95.8724 181.663 96.3566 182.2 96.6997 182.903C97.0483 183.6 97.2227 184.444 97.2227 185.435ZM90.2998 185.435C90.2998 186.165 90.3966 186.799 90.5903 187.335C90.784 187.872 91.0828 188.287 91.4868 188.581C91.8908 188.874 92.411 189.021 93.0474 189.021C93.6782 189.021 94.1956 188.874 94.5996 188.581C95.0091 188.287 95.3107 187.872 95.5044 187.335C95.6981 186.799 95.7949 186.165 95.7949 185.435C95.7949 184.71 95.6981 184.084 95.5044 183.559C95.3107 183.027 95.0119 182.618 94.6079 182.33C94.2039 182.042 93.681 181.898 93.0391 181.898C92.0928 181.898 91.3983 182.211 90.9556 182.836C90.5184 183.462 90.2998 184.328 90.2998 185.435ZM100.991 190H99.605V177.084H100.991V190ZM111.417 180.902V190H110.288L110.089 188.722H110.014C109.826 189.037 109.583 189.303 109.284 189.519C108.985 189.734 108.647 189.895 108.271 190C107.9 190.111 107.505 190.166 107.084 190.166C106.365 190.166 105.761 190.05 105.274 189.817C104.787 189.585 104.419 189.225 104.17 188.738C103.927 188.251 103.805 187.626 103.805 186.862V180.902H105.2V186.763C105.2 187.521 105.371 188.088 105.714 188.464C106.057 188.835 106.58 189.021 107.283 189.021C107.958 189.021 108.495 188.893 108.894 188.639C109.298 188.384 109.588 188.011 109.765 187.518C109.942 187.02 110.031 186.411 110.031 185.692V180.902H111.417ZM118.605 180.736C119.74 180.736 120.645 181.126 121.32 181.907C121.995 182.687 122.333 183.86 122.333 185.426C122.333 186.461 122.178 187.33 121.868 188.033C121.558 188.736 121.121 189.267 120.556 189.626C119.997 189.986 119.336 190.166 118.572 190.166C118.091 190.166 117.667 190.102 117.302 189.975C116.937 189.848 116.624 189.676 116.364 189.46C116.104 189.245 115.888 189.009 115.717 188.755H115.617C115.634 188.971 115.653 189.231 115.675 189.535C115.703 189.84 115.717 190.105 115.717 190.332V194.067H114.331V180.902H115.468L115.65 182.247H115.717C115.894 181.97 116.11 181.719 116.364 181.492C116.619 181.259 116.929 181.077 117.294 180.944C117.665 180.806 118.102 180.736 118.605 180.736ZM118.365 181.898C117.734 181.898 117.225 182.02 116.837 182.264C116.456 182.507 116.176 182.872 115.999 183.359C115.822 183.841 115.728 184.447 115.717 185.177V185.443C115.717 186.212 115.8 186.862 115.966 187.394C116.137 187.925 116.417 188.329 116.804 188.605C117.197 188.882 117.723 189.021 118.381 189.021C118.946 189.021 119.416 188.868 119.792 188.564C120.169 188.26 120.448 187.836 120.631 187.294C120.819 186.746 120.913 186.118 120.913 185.41C120.913 184.336 120.703 183.484 120.282 182.853C119.867 182.217 119.228 181.898 118.365 181.898ZM127.678 189.037C127.905 189.037 128.138 189.018 128.375 188.979C128.613 188.94 128.807 188.893 128.957 188.838V189.909C128.796 189.981 128.572 190.042 128.284 190.091C128.002 190.141 127.725 190.166 127.454 190.166C126.973 190.166 126.535 190.083 126.143 189.917C125.75 189.745 125.434 189.458 125.196 189.054C124.964 188.65 124.848 188.091 124.848 187.377V181.981H123.553V181.309L124.856 180.77L125.404 178.794H126.234V180.902H128.898V181.981H126.234V187.335C126.234 187.905 126.364 188.332 126.624 188.614C126.89 188.896 127.241 189.037 127.678 189.037ZM134.203 180.753C135.287 180.753 136.092 180.996 136.618 181.483C137.144 181.97 137.407 182.748 137.407 183.816V190H136.402L136.137 188.655H136.07C135.816 188.987 135.55 189.267 135.273 189.494C134.997 189.715 134.676 189.884 134.311 190C133.951 190.111 133.508 190.166 132.982 190.166C132.429 190.166 131.937 190.069 131.505 189.875C131.079 189.682 130.741 189.389 130.492 188.996C130.249 188.603 130.127 188.105 130.127 187.501C130.127 186.594 130.487 185.897 131.206 185.41C131.925 184.923 133.021 184.657 134.493 184.613L136.062 184.546V183.99C136.062 183.204 135.893 182.654 135.556 182.338C135.218 182.023 134.742 181.865 134.128 181.865C133.652 181.865 133.198 181.934 132.767 182.073C132.335 182.211 131.925 182.374 131.538 182.562L131.115 181.517C131.524 181.306 131.995 181.126 132.526 180.977C133.057 180.828 133.616 180.753 134.203 180.753ZM136.045 185.518L134.659 185.576C133.525 185.62 132.725 185.805 132.26 186.132C131.795 186.458 131.563 186.92 131.563 187.518C131.563 188.038 131.721 188.423 132.036 188.672C132.352 188.921 132.769 189.045 133.29 189.045C134.097 189.045 134.759 188.821 135.273 188.373C135.788 187.925 136.045 187.252 136.045 186.356V185.518ZM146.131 187.51C146.131 188.091 145.984 188.581 145.691 188.979C145.403 189.372 144.988 189.668 144.446 189.867C143.909 190.066 143.267 190.166 142.52 190.166C141.884 190.166 141.333 190.116 140.868 190.017C140.403 189.917 139.997 189.776 139.648 189.593V188.323C140.019 188.506 140.461 188.672 140.976 188.821C141.491 188.971 142.016 189.045 142.553 189.045C143.339 189.045 143.909 188.918 144.263 188.664C144.617 188.409 144.794 188.063 144.794 187.626C144.794 187.377 144.722 187.158 144.579 186.97C144.44 186.777 144.205 186.591 143.873 186.414C143.541 186.231 143.082 186.032 142.495 185.816C141.914 185.595 141.41 185.376 140.984 185.161C140.564 184.939 140.237 184.671 140.005 184.355C139.778 184.04 139.665 183.631 139.665 183.127C139.665 182.358 139.974 181.768 140.594 181.359C141.22 180.944 142.039 180.736 143.051 180.736C143.599 180.736 144.111 180.792 144.587 180.902C145.068 181.007 145.517 181.151 145.932 181.334L145.467 182.438C145.09 182.278 144.689 182.142 144.263 182.031C143.837 181.921 143.403 181.865 142.96 181.865C142.324 181.865 141.834 181.97 141.491 182.181C141.153 182.391 140.984 182.679 140.984 183.044C140.984 183.326 141.062 183.559 141.217 183.741C141.377 183.924 141.632 184.095 141.98 184.256C142.329 184.416 142.788 184.604 143.358 184.82C143.928 185.031 144.421 185.249 144.836 185.476C145.251 185.697 145.569 185.969 145.791 186.29C146.017 186.605 146.131 187.012 146.131 187.51ZM148.14 189.137C148.14 188.749 148.234 188.475 148.422 188.315C148.61 188.149 148.84 188.066 149.111 188.066C149.393 188.066 149.631 188.149 149.825 188.315C150.018 188.475 150.115 188.749 150.115 189.137C150.115 189.519 150.018 189.798 149.825 189.975C149.631 190.147 149.393 190.232 149.111 190.232C148.84 190.232 148.61 190.147 148.422 189.975C148.234 189.798 148.14 189.519 148.14 189.137Z" fill="#141414"/>
<defs>
<clipPath id="clip0_1_213">
<rect width="68" height="68" fill="white" transform="translate(35 34)"/>
</clipPath>
</defs>
</svg>
