<svg width="392" height="229" viewBox="0 0 392 229" fill="none" xmlns="http://www.w3.org/2000/svg">
<path d="M0 0H391V228H0V0Z" fill="white"/>
<g clip-path="url(#clip0_1_223)">
<path d="M65.9662 63.75H80.7892C81.6427 63.7369 82.4782 63.9964 83.1738 64.4908C83.8694 64.9852 84.3889 65.6887 84.6565 66.4987C85.0057 67.293 85.0909 68.1782 84.8995 69.0244C84.7081 69.8706 84.2503 70.6332 83.5932 71.2002L49.5662 100.95C48.8409 101.587 47.9202 101.958 46.9557 102.003C45.9912 102.048 45.0401 101.763 44.2589 101.196C43.4777 100.629 42.9129 99.8131 42.6572 98.8827C42.4016 97.9523 42.4704 96.9627 42.8523 96.0766L53.0732 72.25H38.1343C37.2787 72.2266 36.4501 71.9459 35.7567 71.4444C35.0634 70.943 34.5376 70.2442 34.248 69.4395C33.9584 68.6347 33.9186 67.7613 34.1337 66.9336C34.3488 66.1058 34.8088 65.3621 35.4536 64.7997L69.4805 35.0497C70.206 34.4145 71.1261 34.0445 72.0898 34.0005C73.0534 33.9566 74.0034 34.2412 74.7839 34.8078C75.5643 35.3744 76.1288 36.1892 76.3847 37.1186C76.6407 38.0479 76.5728 39.0366 76.1923 39.9224L65.9662 63.75Z" fill="#A68F4B"/>
</g>
<path d="M107.731 47.063C107.731 47.7004 107.683 48.2697 107.586 48.771C107.489 49.2723 107.337 49.6966 107.129 50.0439C106.922 50.3913 106.653 50.6562 106.324 50.8389C105.994 51.0179 105.599 51.1074 105.137 51.1074C104.553 51.1074 104.07 50.9481 103.687 50.6294C103.307 50.3107 103.022 49.8506 102.833 49.249C102.646 48.6439 102.553 47.9152 102.553 47.063C102.553 46.2251 102.637 45.5054 102.806 44.9038C102.978 44.2987 103.253 43.835 103.633 43.5127C104.012 43.1868 104.514 43.0239 105.137 43.0239C105.728 43.0239 106.215 43.1851 106.598 43.5073C106.981 43.826 107.265 44.2879 107.452 44.8931C107.638 45.4946 107.731 46.2179 107.731 47.063ZM103.45 47.063C103.45 47.7935 103.506 48.4022 103.617 48.8892C103.728 49.3761 103.907 49.7414 104.154 49.9849C104.404 50.2248 104.732 50.3447 105.137 50.3447C105.541 50.3447 105.867 50.2248 106.114 49.9849C106.365 49.745 106.546 49.3815 106.657 48.8945C106.771 48.4076 106.829 47.797 106.829 47.063C106.829 46.3433 106.773 45.7417 106.662 45.2583C106.551 44.7713 106.372 44.4061 106.125 44.1626C105.878 43.9155 105.549 43.792 105.137 43.792C104.725 43.792 104.396 43.9155 104.148 44.1626C103.901 44.4061 103.722 44.7713 103.611 45.2583C103.504 45.7417 103.45 46.3433 103.45 47.063ZM114.081 46.1982C114.615 46.1982 115.079 46.2896 115.472 46.4722C115.866 46.6512 116.171 46.9126 116.386 47.2563C116.604 47.6001 116.713 48.0173 116.713 48.5078C116.713 49.0449 116.597 49.5086 116.364 49.8989C116.131 50.2856 115.797 50.5846 115.36 50.7959C114.923 51.0036 114.4 51.1074 113.791 51.1074C113.383 51.1074 113.004 51.0716 112.653 51C112.302 50.9284 112.006 50.821 111.766 50.6777V49.8291C112.028 49.9867 112.345 50.112 112.717 50.2051C113.089 50.2982 113.451 50.3447 113.802 50.3447C114.2 50.3447 114.547 50.2821 114.844 50.1567C115.145 50.0278 115.378 49.8345 115.542 49.5767C115.711 49.3153 115.795 48.9876 115.795 48.5938C115.795 48.071 115.634 47.6681 115.311 47.3853C114.993 47.0988 114.488 46.9556 113.797 46.9556C113.575 46.9556 113.331 46.9735 113.066 47.0093C112.801 47.0451 112.583 47.0845 112.411 47.1274L111.96 46.832L112.261 43.1475H116.165V43.9639H113.023L112.825 46.3325C112.961 46.3039 113.136 46.2752 113.351 46.2466C113.566 46.2144 113.809 46.1982 114.081 46.1982ZM124.03 43.1475L121.108 51H120.228L123.155 43.1475H124.03ZM132.647 47.063C132.647 47.7004 132.599 48.2697 132.502 48.771C132.406 49.2723 132.253 49.6966 132.046 50.0439C131.838 50.3913 131.57 50.6562 131.24 50.8389C130.911 51.0179 130.515 51.1074 130.053 51.1074C129.469 51.1074 128.986 50.9481 128.603 50.6294C128.223 50.3107 127.939 49.8506 127.749 49.249C127.563 48.6439 127.47 47.9152 127.47 47.063C127.47 46.2251 127.554 45.5054 127.722 44.9038C127.894 44.2987 128.17 43.835 128.549 43.5127C128.929 43.1868 129.43 43.0239 130.053 43.0239C130.644 43.0239 131.131 43.1851 131.514 43.5073C131.897 43.826 132.182 44.2879 132.368 44.8931C132.554 45.4946 132.647 46.2179 132.647 47.063ZM128.367 47.063C128.367 47.7935 128.422 48.4022 128.533 48.8892C128.644 49.3761 128.823 49.7414 129.07 49.9849C129.321 50.2248 129.649 50.3447 130.053 50.3447C130.458 50.3447 130.784 50.2248 131.031 49.9849C131.281 49.745 131.462 49.3815 131.573 48.8945C131.688 48.4076 131.745 47.797 131.745 47.063C131.745 46.3433 131.69 45.7417 131.579 45.2583C131.468 44.7713 131.288 44.4061 131.041 44.1626C130.794 43.9155 130.465 43.792 130.053 43.792C129.641 43.792 129.312 43.9155 129.065 44.1626C128.818 44.4061 128.639 44.7713 128.528 45.2583C128.42 45.7417 128.367 46.3433 128.367 47.063ZM136.597 47.6431C136.597 47.1704 136.629 46.7085 136.694 46.2573C136.762 45.8062 136.874 45.3872 137.032 45.0005C137.189 44.6102 137.404 44.2682 137.676 43.9746C137.949 43.681 138.287 43.4518 138.692 43.2871C139.1 43.1188 139.589 43.0347 140.158 43.0347C140.319 43.0347 140.493 43.0436 140.679 43.0615C140.865 43.0758 141.019 43.1009 141.141 43.1367V43.9048C141.008 43.8582 140.856 43.8242 140.684 43.8027C140.516 43.7812 140.346 43.7705 140.174 43.7705C139.508 43.7705 138.983 43.9155 138.6 44.2056C138.221 44.4956 137.947 44.8895 137.779 45.3872C137.61 45.8813 137.514 46.4382 137.488 47.0576H137.548C137.659 46.8786 137.8 46.7174 137.972 46.5742C138.144 46.4274 138.351 46.311 138.595 46.2251C138.842 46.1392 139.128 46.0962 139.454 46.0962C139.913 46.0962 140.312 46.1893 140.652 46.3755C140.996 46.5617 141.261 46.832 141.447 47.1865C141.637 47.541 141.732 47.9707 141.732 48.4756C141.732 49.0163 141.631 49.4836 141.431 49.8774C141.23 50.2713 140.944 50.5757 140.571 50.7905C140.203 51.0018 139.762 51.1074 139.25 51.1074C138.867 51.1074 138.514 51.034 138.192 50.8872C137.87 50.7404 137.589 50.522 137.349 50.2319C137.112 49.9419 136.928 49.582 136.796 49.1523C136.663 48.7191 136.597 48.216 136.597 47.6431ZM139.239 50.3555C139.726 50.3555 140.117 50.1997 140.41 49.8882C140.704 49.5767 140.851 49.1058 140.851 48.4756C140.851 47.96 140.72 47.5518 140.459 47.251C140.197 46.9502 139.803 46.7998 139.277 46.7998C138.919 46.7998 138.607 46.875 138.342 47.0254C138.078 47.1722 137.872 47.3584 137.725 47.584C137.578 47.8096 137.505 48.0387 137.505 48.2715C137.505 48.5078 137.539 48.7477 137.607 48.9912C137.678 49.2347 137.786 49.4603 137.929 49.668C138.072 49.8757 138.253 50.0422 138.471 50.1675C138.69 50.2928 138.946 50.3555 139.239 50.3555Z" fill="#99823D"/>
<path d="M105.718 83.102H110.424V85H103.352V68.724H110.242V70.622H105.718V75.64H109.462V77.538H105.718V83.102ZM116.008 72.312H116.918C118.495 72.312 119.284 73.0833 119.284 74.626V85H116.944V74.964C116.944 74.652 116.892 74.4527 116.788 74.366C116.684 74.262 116.476 74.21 116.164 74.21H115.254C114.942 74.21 114.717 74.2793 114.578 74.418C114.457 74.5567 114.396 74.7907 114.396 75.12V85H112.056V72.312H114.396V73.326C114.621 72.65 115.159 72.312 116.008 72.312ZM123.918 72.312H126.466C128.096 72.312 128.91 73.0833 128.91 74.626V79.384H123.788V82.4C123.788 82.6947 123.84 82.894 123.944 82.998C124.048 83.102 124.256 83.154 124.568 83.154H125.764C126.076 83.154 126.284 83.102 126.388 82.998C126.492 82.894 126.544 82.686 126.544 82.374V81.334H128.832V82.712C128.832 84.2373 128.026 85 126.414 85H123.918C122.306 85 121.5 84.2373 121.5 82.712V74.626C121.5 73.0833 122.306 72.312 123.918 72.312ZM123.788 77.668H126.596V74.912C126.596 74.6173 126.544 74.418 126.44 74.314C126.354 74.21 126.154 74.158 125.842 74.158H124.568C124.256 74.158 124.048 74.21 123.944 74.314C123.84 74.418 123.788 74.6173 123.788 74.912V77.668ZM135.315 72.286H135.835V74.314H134.899C133.807 74.314 133.261 74.9553 133.261 76.238V85H130.921V72.312H133.261V73.872C133.4 73.4213 133.643 73.0487 133.989 72.754C134.353 72.442 134.795 72.286 135.315 72.286ZM141.849 72.312H144.189V86.3C144.189 87.8253 143.374 88.588 141.745 88.588H137.403V86.742H141.069C141.381 86.742 141.589 86.69 141.693 86.586C141.797 86.482 141.849 86.2827 141.849 85.988V83.83C141.623 84.506 141.086 84.844 140.237 84.844H139.301C137.741 84.844 136.961 84.0727 136.961 82.53V74.626C136.961 73.0833 137.741 72.312 139.301 72.312H140.237C141.086 72.312 141.623 72.65 141.849 73.326V72.312ZM140.081 82.946H140.991C141.303 82.946 141.519 82.8767 141.641 82.738C141.779 82.5993 141.849 82.3653 141.849 82.036V75.12C141.849 74.7907 141.779 74.5567 141.641 74.418C141.519 74.2793 141.303 74.21 140.991 74.21H140.081C139.769 74.21 139.561 74.262 139.457 74.366C139.353 74.4527 139.301 74.652 139.301 74.964V82.192C139.301 82.4867 139.353 82.686 139.457 82.79C139.561 82.894 139.769 82.946 140.081 82.946ZM148.358 88.588H146.798V86.716H147.864C148.609 86.716 149.06 86.43 149.216 85.858L149.476 84.792H148.202L145.55 72.312H147.942L149.866 82.946L151.66 72.312H154.026L151.348 86.222C150.966 87.7993 149.97 88.588 148.358 88.588ZM165.318 85L164.668 81.23H161.236L160.638 85H158.298L161.184 68.724H164.59L167.684 85H165.318ZM161.522 79.332H164.356L162.874 70.752L161.522 79.332ZM173.996 72.312H176.336V85H173.996V83.986C173.771 84.662 173.234 85 172.384 85H171.448C169.888 85 169.108 84.2373 169.108 82.712V72.312H171.448V82.348C171.448 82.66 171.5 82.868 171.604 82.972C171.708 83.0587 171.916 83.102 172.228 83.102H173.138C173.45 83.102 173.667 83.0327 173.788 82.894C173.927 82.7553 173.996 82.5213 173.996 82.192V72.312ZM183.362 67.606H185.702V85H183.362V83.986C183.137 84.662 182.6 85 181.75 85H180.814C179.254 85 178.474 84.2373 178.474 82.712V74.6C178.474 73.0573 179.254 72.286 180.814 72.286H181.75C182.6 72.286 183.137 72.624 183.362 73.3V67.606ZM181.594 83.102H182.504C182.816 83.102 183.033 83.0327 183.154 82.894C183.293 82.7553 183.362 82.5213 183.362 82.192V75.094C183.362 74.7647 183.293 74.5307 183.154 74.392C183.033 74.2533 182.816 74.184 182.504 74.184H181.594C181.282 74.184 181.074 74.236 180.97 74.34C180.866 74.444 180.814 74.6433 180.814 74.938V82.348C180.814 82.66 180.866 82.868 180.97 82.972C181.074 83.0587 181.282 83.102 181.594 83.102ZM187.947 69.894V67.58H190.391V69.894H187.947ZM190.339 85H187.999V72.312H190.339V85ZM196.911 74.21H195.169V82.244C195.169 82.556 195.212 82.764 195.299 82.868C195.403 82.9547 195.611 82.998 195.923 82.998H196.911V85H195.247C193.617 85 192.803 84.2373 192.803 82.712V74.21H191.607V72.312H192.803V70.154H195.169V72.312H196.911V74.21Z" fill="#141414"/>
<path d="M42.417 139H35.6602V126.864H42.417V128.109H37.0713V132.036H42.1099V133.264H37.0713V137.755H42.417V139ZM47.0654 134.343L43.9194 129.902H45.4966L47.8955 133.405L50.2861 129.902H51.8467L48.7007 134.343L52.021 139H50.4438L47.8955 135.29L45.3306 139H43.77L47.0654 134.343ZM57.4414 139.166C56.6224 139.166 55.9002 138.997 55.2749 138.66C54.6496 138.322 54.1626 137.807 53.814 137.116C53.4653 136.424 53.291 135.552 53.291 134.501C53.291 133.4 53.4736 132.5 53.8389 131.803C54.2096 131.1 54.7188 130.58 55.3662 130.243C56.0137 129.905 56.7497 129.736 57.5742 129.736C58.028 129.736 58.4652 129.783 58.8857 129.877C59.3118 129.966 59.6605 130.079 59.9316 130.218L59.5166 131.372C59.2399 131.261 58.9189 131.161 58.5537 131.073C58.194 130.984 57.8564 130.94 57.541 130.94C56.9102 130.94 56.3844 131.076 55.9639 131.347C55.5488 131.618 55.2362 132.016 55.0259 132.542C54.8211 133.068 54.7188 133.715 54.7188 134.484C54.7188 135.22 54.8184 135.848 55.0176 136.369C55.2223 136.889 55.5239 137.287 55.9224 137.564C56.3263 137.835 56.8299 137.971 57.4331 137.971C57.9146 137.971 58.349 137.921 58.7363 137.821C59.1237 137.716 59.4751 137.594 59.7905 137.456V138.685C59.4862 138.84 59.1458 138.958 58.7695 139.042C58.3988 139.125 57.9561 139.166 57.4414 139.166ZM65.4517 129.736C66.2264 129.736 66.8905 129.908 67.4438 130.251C67.9972 130.594 68.4206 131.076 68.7139 131.695C69.0072 132.31 69.1538 133.029 69.1538 133.854V134.708H62.8701C62.8867 135.777 63.1523 136.59 63.667 137.149C64.1816 137.708 64.9066 137.987 65.8418 137.987C66.4173 137.987 66.9264 137.935 67.3691 137.83C67.8118 137.724 68.2712 137.569 68.7471 137.365V138.577C68.2878 138.781 67.8312 138.931 67.3774 139.025C66.9292 139.119 66.3979 139.166 65.7837 139.166C64.9093 139.166 64.1457 138.989 63.4927 138.635C62.8452 138.275 62.3416 137.749 61.9819 137.058C61.6222 136.366 61.4424 135.519 61.4424 134.518C61.4424 133.538 61.6056 132.691 61.9321 131.978C62.2642 131.258 62.729 130.705 63.3267 130.317C63.9299 129.93 64.6382 129.736 65.4517 129.736ZM65.4351 130.865C64.6991 130.865 64.1125 131.106 63.6753 131.587C63.2381 132.069 62.978 132.741 62.895 133.604H67.7095C67.7039 133.062 67.6182 132.586 67.4521 132.177C67.2917 131.762 67.0454 131.441 66.7134 131.214C66.3813 130.981 65.9552 130.865 65.4351 130.865ZM75.7695 129.736C76.904 129.736 77.8088 130.126 78.4839 130.907C79.159 131.687 79.4966 132.86 79.4966 134.426C79.4966 135.461 79.3416 136.33 79.0317 137.033C78.7218 137.736 78.2847 138.267 77.7202 138.626C77.1613 138.986 76.5 139.166 75.7363 139.166C75.2549 139.166 74.8315 139.102 74.4663 138.975C74.1011 138.848 73.7884 138.676 73.5283 138.46C73.2682 138.245 73.0524 138.009 72.8809 137.755H72.7812C72.7979 137.971 72.8172 138.231 72.8394 138.535C72.867 138.84 72.8809 139.105 72.8809 139.332V143.067H71.4946V129.902H72.6318L72.8145 131.247H72.8809C73.0579 130.97 73.2738 130.719 73.5283 130.492C73.7829 130.259 74.0928 130.077 74.458 129.944C74.8288 129.806 75.266 129.736 75.7695 129.736ZM75.5288 130.898C74.8979 130.898 74.3888 131.02 74.0015 131.264C73.6196 131.507 73.3402 131.872 73.1631 132.359C72.986 132.841 72.8919 133.447 72.8809 134.177V134.443C72.8809 135.212 72.9639 135.862 73.1299 136.394C73.3014 136.925 73.5809 137.329 73.9683 137.605C74.3612 137.882 74.8869 138.021 75.5454 138.021C76.1099 138.021 76.5802 137.868 76.9565 137.564C77.3328 137.26 77.6123 136.836 77.7949 136.294C77.9831 135.746 78.0771 135.118 78.0771 134.41C78.0771 133.336 77.8669 132.484 77.4463 131.853C77.0312 131.217 76.3921 130.898 75.5288 130.898ZM84.8423 138.037C85.0692 138.037 85.3016 138.018 85.5396 137.979C85.7775 137.94 85.9712 137.893 86.1206 137.838V138.909C85.9601 138.981 85.736 139.042 85.4482 139.091C85.166 139.141 84.8893 139.166 84.6182 139.166C84.1367 139.166 83.6995 139.083 83.3066 138.917C82.9137 138.745 82.5983 138.458 82.3604 138.054C82.1279 137.65 82.0117 137.091 82.0117 136.377V130.981H80.7168V130.309L82.02 129.77L82.5679 127.794H83.3979V129.902H86.0625V130.981H83.3979V136.335C83.3979 136.905 83.528 137.332 83.7881 137.614C84.0537 137.896 84.4051 138.037 84.8423 138.037ZM95.4756 129.902V139H94.3467L94.1475 137.722H94.0728C93.8846 138.037 93.6411 138.303 93.3423 138.519C93.0435 138.734 92.7059 138.895 92.3296 139C91.9588 139.111 91.5632 139.166 91.1426 139.166C90.4232 139.166 89.82 139.05 89.333 138.817C88.846 138.585 88.478 138.225 88.229 137.738C87.9855 137.251 87.8638 136.626 87.8638 135.862V129.902H89.2583V135.763C89.2583 136.521 89.4299 137.088 89.7729 137.464C90.116 137.835 90.639 138.021 91.3418 138.021C92.0169 138.021 92.5537 137.893 92.9521 137.639C93.3561 137.384 93.6466 137.011 93.8237 136.518C94.0008 136.02 94.0894 135.411 94.0894 134.692V129.902H95.4756ZM102.523 129.736C102.706 129.736 102.896 129.747 103.096 129.77C103.295 129.786 103.472 129.811 103.627 129.844L103.453 131.123C103.303 131.084 103.137 131.053 102.955 131.031C102.772 131.009 102.6 130.998 102.44 130.998C102.075 130.998 101.729 131.073 101.402 131.222C101.081 131.366 100.799 131.576 100.556 131.853C100.312 132.124 100.121 132.453 99.9829 132.841C99.8446 133.223 99.7754 133.649 99.7754 134.119V139H98.3892V129.902H99.5347L99.6841 131.579H99.7422C99.9303 131.242 100.157 130.934 100.423 130.658C100.688 130.375 100.996 130.151 101.344 129.985C101.698 129.819 102.091 129.736 102.523 129.736ZM106.723 129.902V139H105.345V129.902H106.723ZM106.051 126.499C106.278 126.499 106.471 126.574 106.632 126.723C106.798 126.867 106.881 127.094 106.881 127.404C106.881 127.708 106.798 127.935 106.632 128.084C106.471 128.234 106.278 128.309 106.051 128.309C105.813 128.309 105.614 128.234 105.453 128.084C105.298 127.935 105.221 127.708 105.221 127.404C105.221 127.094 105.298 126.867 105.453 126.723C105.614 126.574 105.813 126.499 106.051 126.499ZM119.946 136.51C119.946 137.091 119.8 137.581 119.506 137.979C119.219 138.372 118.804 138.668 118.261 138.867C117.724 139.066 117.083 139.166 116.335 139.166C115.699 139.166 115.148 139.116 114.684 139.017C114.219 138.917 113.812 138.776 113.463 138.593V137.323C113.834 137.506 114.277 137.672 114.792 137.821C115.306 137.971 115.832 138.045 116.369 138.045C117.154 138.045 117.724 137.918 118.079 137.664C118.433 137.409 118.61 137.063 118.61 136.626C118.61 136.377 118.538 136.158 118.394 135.97C118.256 135.777 118.021 135.591 117.688 135.414C117.356 135.231 116.897 135.032 116.311 134.816C115.729 134.595 115.226 134.376 114.8 134.161C114.379 133.939 114.053 133.671 113.82 133.355C113.593 133.04 113.48 132.631 113.48 132.127C113.48 131.358 113.79 130.768 114.41 130.359C115.035 129.944 115.854 129.736 116.867 129.736C117.415 129.736 117.926 129.792 118.402 129.902C118.884 130.007 119.332 130.151 119.747 130.334L119.282 131.438C118.906 131.278 118.505 131.142 118.079 131.031C117.653 130.921 117.218 130.865 116.775 130.865C116.139 130.865 115.649 130.97 115.306 131.181C114.969 131.391 114.8 131.679 114.8 132.044C114.8 132.326 114.877 132.559 115.032 132.741C115.193 132.924 115.447 133.095 115.796 133.256C116.145 133.416 116.604 133.604 117.174 133.82C117.744 134.031 118.236 134.249 118.651 134.476C119.066 134.697 119.385 134.969 119.606 135.29C119.833 135.605 119.946 136.012 119.946 136.51ZM125.666 129.736C126.44 129.736 127.104 129.908 127.658 130.251C128.211 130.594 128.634 131.076 128.928 131.695C129.221 132.31 129.368 133.029 129.368 133.854V134.708H123.084C123.101 135.777 123.366 136.59 123.881 137.149C124.396 137.708 125.12 137.987 126.056 137.987C126.631 137.987 127.14 137.935 127.583 137.83C128.026 137.724 128.485 137.569 128.961 137.365V138.577C128.502 138.781 128.045 138.931 127.591 139.025C127.143 139.119 126.612 139.166 125.998 139.166C125.123 139.166 124.36 138.989 123.707 138.635C123.059 138.275 122.556 137.749 122.196 137.058C121.836 136.366 121.656 135.519 121.656 134.518C121.656 133.538 121.819 132.691 122.146 131.978C122.478 131.258 122.943 130.705 123.541 130.317C124.144 129.93 124.852 129.736 125.666 129.736ZM125.649 130.865C124.913 130.865 124.326 131.106 123.889 131.587C123.452 132.069 123.192 132.741 123.109 133.604H127.923C127.918 133.062 127.832 132.586 127.666 132.177C127.506 131.762 127.259 131.441 126.927 131.214C126.595 130.981 126.169 130.865 125.649 130.865ZM134.946 139.166C133.795 139.166 132.882 138.773 132.207 137.987C131.537 137.201 131.202 136.034 131.202 134.484C131.202 132.918 131.545 131.737 132.231 130.94C132.918 130.138 133.831 129.736 134.971 129.736C135.452 129.736 135.873 129.8 136.232 129.927C136.592 130.055 136.902 130.226 137.162 130.442C137.422 130.652 137.641 130.893 137.818 131.164H137.917C137.895 130.993 137.873 130.757 137.851 130.458C137.829 130.16 137.818 129.916 137.818 129.728V126.084H139.196V139H138.083L137.876 137.705H137.818C137.646 137.976 137.428 138.222 137.162 138.444C136.902 138.665 136.589 138.842 136.224 138.975C135.864 139.102 135.438 139.166 134.946 139.166ZM135.162 138.021C136.136 138.021 136.825 137.744 137.229 137.19C137.632 136.637 137.834 135.815 137.834 134.725V134.476C137.834 133.319 137.641 132.431 137.253 131.812C136.872 131.192 136.174 130.882 135.162 130.882C134.315 130.882 133.681 131.208 133.261 131.861C132.84 132.509 132.63 133.394 132.63 134.518C132.63 135.635 132.837 136.499 133.252 137.107C133.673 137.716 134.309 138.021 135.162 138.021ZM147.912 129.902V139H146.534V129.902H147.912ZM147.239 126.499C147.466 126.499 147.66 126.574 147.82 126.723C147.986 126.867 148.069 127.094 148.069 127.404C148.069 127.708 147.986 127.935 147.82 128.084C147.66 128.234 147.466 128.309 147.239 128.309C147.001 128.309 146.802 128.234 146.642 128.084C146.487 127.935 146.409 127.708 146.409 127.404C146.409 127.094 146.487 126.867 146.642 126.723C146.802 126.574 147.001 126.499 147.239 126.499ZM160.711 129.736C161.713 129.736 162.468 129.999 162.978 130.525C163.487 131.045 163.741 131.883 163.741 133.04V139H162.38V133.106C162.38 132.37 162.219 131.82 161.898 131.455C161.583 131.084 161.113 130.898 160.487 130.898C159.607 130.898 158.968 131.153 158.57 131.662C158.171 132.171 157.972 132.921 157.972 133.912V139H156.603V133.106C156.603 132.614 156.531 132.204 156.387 131.878C156.248 131.551 156.038 131.308 155.756 131.147C155.479 130.981 155.128 130.898 154.702 130.898C154.098 130.898 153.614 131.023 153.249 131.272C152.884 131.521 152.618 131.892 152.452 132.384C152.292 132.871 152.211 133.472 152.211 134.186V139H150.833V129.902H151.946L152.153 131.189H152.228C152.411 130.874 152.64 130.608 152.917 130.392C153.194 130.176 153.504 130.013 153.847 129.902C154.19 129.792 154.555 129.736 154.942 129.736C155.634 129.736 156.212 129.866 156.677 130.126C157.148 130.381 157.488 130.771 157.698 131.297H157.773C158.072 130.771 158.481 130.381 159.001 130.126C159.522 129.866 160.092 129.736 160.711 129.736ZM170.847 129.736C171.981 129.736 172.886 130.126 173.561 130.907C174.236 131.687 174.574 132.86 174.574 134.426C174.574 135.461 174.419 136.33 174.109 137.033C173.799 137.736 173.362 138.267 172.797 138.626C172.238 138.986 171.577 139.166 170.813 139.166C170.332 139.166 169.909 139.102 169.543 138.975C169.178 138.848 168.866 138.676 168.605 138.46C168.345 138.245 168.13 138.009 167.958 137.755H167.858C167.875 137.971 167.894 138.231 167.917 138.535C167.944 138.84 167.958 139.105 167.958 139.332V143.067H166.572V129.902H167.709L167.892 131.247H167.958C168.135 130.97 168.351 130.719 168.605 130.492C168.86 130.259 169.17 130.077 169.535 129.944C169.906 129.806 170.343 129.736 170.847 129.736ZM170.606 130.898C169.975 130.898 169.466 131.02 169.079 131.264C168.697 131.507 168.417 131.872 168.24 132.359C168.063 132.841 167.969 133.447 167.958 134.177V134.443C167.958 135.212 168.041 135.862 168.207 136.394C168.379 136.925 168.658 137.329 169.045 137.605C169.438 137.882 169.964 138.021 170.623 138.021C171.187 138.021 171.657 137.868 172.034 137.564C172.41 137.26 172.689 136.836 172.872 136.294C173.06 135.746 173.154 135.118 173.154 134.41C173.154 133.336 172.944 132.484 172.523 131.853C172.108 131.217 171.469 130.898 170.606 130.898ZM180.484 129.736C181.259 129.736 181.923 129.908 182.476 130.251C183.029 130.594 183.453 131.076 183.746 131.695C184.039 132.31 184.186 133.029 184.186 133.854V134.708H177.902C177.919 135.777 178.185 136.59 178.699 137.149C179.214 137.708 179.939 137.987 180.874 137.987C181.45 137.987 181.959 137.935 182.401 137.83C182.844 137.724 183.303 137.569 183.779 137.365V138.577C183.32 138.781 182.863 138.931 182.41 139.025C181.961 139.119 181.43 139.166 180.816 139.166C179.942 139.166 179.178 138.989 178.525 138.635C177.877 138.275 177.374 137.749 177.014 137.058C176.654 136.366 176.475 135.519 176.475 134.518C176.475 133.538 176.638 132.691 176.964 131.978C177.296 131.258 177.761 130.705 178.359 130.317C178.962 129.93 179.67 129.736 180.484 129.736ZM180.467 130.865C179.731 130.865 179.145 131.106 178.708 131.587C178.27 132.069 178.01 132.741 177.927 133.604H182.742C182.736 133.062 182.65 132.586 182.484 132.177C182.324 131.762 182.078 131.441 181.746 131.214C181.414 130.981 180.987 130.865 180.467 130.865ZM189.764 139.166C188.613 139.166 187.7 138.773 187.025 137.987C186.355 137.201 186.021 136.034 186.021 134.484C186.021 132.918 186.364 131.737 187.05 130.94C187.736 130.138 188.649 129.736 189.789 129.736C190.271 129.736 190.691 129.8 191.051 129.927C191.41 130.055 191.72 130.226 191.98 130.442C192.241 130.652 192.459 130.893 192.636 131.164H192.736C192.714 130.993 192.692 130.757 192.669 130.458C192.647 130.16 192.636 129.916 192.636 129.728V126.084H194.014V139H192.902L192.694 137.705H192.636C192.465 137.976 192.246 138.222 191.98 138.444C191.72 138.665 191.408 138.842 191.042 138.975C190.683 139.102 190.257 139.166 189.764 139.166ZM189.98 138.021C190.954 138.021 191.643 137.744 192.047 137.19C192.451 136.637 192.653 135.815 192.653 134.725V134.476C192.653 133.319 192.459 132.431 192.072 131.812C191.69 131.192 190.993 130.882 189.98 130.882C189.133 130.882 188.5 131.208 188.079 131.861C187.659 132.509 187.448 133.394 187.448 134.518C187.448 135.635 187.656 136.499 188.071 137.107C188.491 137.716 189.128 138.021 189.98 138.021ZM198.314 129.902V139H196.936V129.902H198.314ZM197.642 126.499C197.868 126.499 198.062 126.574 198.223 126.723C198.389 126.867 198.472 127.094 198.472 127.404C198.472 127.708 198.389 127.935 198.223 128.084C198.062 128.234 197.868 128.309 197.642 128.309C197.404 128.309 197.204 128.234 197.044 128.084C196.889 127.935 196.812 127.708 196.812 127.404C196.812 127.094 196.889 126.867 197.044 126.723C197.204 126.574 197.404 126.499 197.642 126.499ZM204.174 138.037C204.401 138.037 204.634 138.018 204.872 137.979C205.11 137.94 205.303 137.893 205.453 137.838V138.909C205.292 138.981 205.068 139.042 204.78 139.091C204.498 139.141 204.221 139.166 203.95 139.166C203.469 139.166 203.032 139.083 202.639 138.917C202.246 138.745 201.93 138.458 201.692 138.054C201.46 137.65 201.344 137.091 201.344 136.377V130.981H200.049V130.309L201.352 129.77L201.9 127.794H202.73V129.902H205.395V130.981H202.73V136.335C202.73 136.905 202.86 137.332 203.12 137.614C203.386 137.896 203.737 138.037 204.174 138.037ZM221.589 129.736C222.591 129.736 223.346 129.999 223.855 130.525C224.365 131.045 224.619 131.883 224.619 133.04V139H223.258V133.106C223.258 132.37 223.097 131.82 222.776 131.455C222.461 131.084 221.991 130.898 221.365 130.898C220.485 130.898 219.846 131.153 219.448 131.662C219.049 132.171 218.85 132.921 218.85 133.912V139H217.48V133.106C217.48 132.614 217.409 132.204 217.265 131.878C217.126 131.551 216.916 131.308 216.634 131.147C216.357 130.981 216.006 130.898 215.58 130.898C214.976 130.898 214.492 131.023 214.127 131.272C213.762 131.521 213.496 131.892 213.33 132.384C213.17 132.871 213.089 133.472 213.089 134.186V139H211.711V129.902H212.824L213.031 131.189H213.106C213.289 130.874 213.518 130.608 213.795 130.392C214.072 130.176 214.382 130.013 214.725 129.902C215.068 129.792 215.433 129.736 215.82 129.736C216.512 129.736 217.09 129.866 217.555 130.126C218.026 130.381 218.366 130.771 218.576 131.297H218.651C218.95 130.771 219.359 130.381 219.879 130.126C220.4 129.866 220.97 129.736 221.589 129.736ZM235.294 134.435C235.294 135.182 235.197 135.848 235.003 136.435C234.81 137.022 234.53 137.517 234.165 137.921C233.8 138.325 233.357 138.635 232.837 138.851C232.322 139.061 231.738 139.166 231.085 139.166C230.477 139.166 229.918 139.061 229.409 138.851C228.905 138.635 228.468 138.325 228.097 137.921C227.732 137.517 227.447 137.022 227.242 136.435C227.043 135.848 226.943 135.182 226.943 134.435C226.943 133.438 227.112 132.592 227.45 131.895C227.787 131.192 228.269 130.658 228.894 130.292C229.525 129.922 230.275 129.736 231.144 129.736C231.974 129.736 232.699 129.922 233.318 130.292C233.944 130.663 234.428 131.2 234.771 131.903C235.12 132.6 235.294 133.444 235.294 134.435ZM228.371 134.435C228.371 135.165 228.468 135.799 228.662 136.335C228.855 136.872 229.154 137.287 229.558 137.581C229.962 137.874 230.482 138.021 231.119 138.021C231.75 138.021 232.267 137.874 232.671 137.581C233.08 137.287 233.382 136.872 233.576 136.335C233.769 135.799 233.866 135.165 233.866 134.435C233.866 133.71 233.769 133.084 233.576 132.559C233.382 132.027 233.083 131.618 232.679 131.33C232.275 131.042 231.752 130.898 231.11 130.898C230.164 130.898 229.47 131.211 229.027 131.836C228.59 132.462 228.371 133.328 228.371 134.435ZM239.062 139H237.676V126.084H239.062V139ZM243.362 139H241.976V126.084H243.362V139ZM247.654 129.902V139H246.276V129.902H247.654ZM246.981 126.499C247.208 126.499 247.402 126.574 247.562 126.723C247.729 126.867 247.812 127.094 247.812 127.404C247.812 127.708 247.729 127.935 247.562 128.084C247.402 128.234 247.208 128.309 246.981 128.309C246.743 128.309 246.544 128.234 246.384 128.084C246.229 127.935 246.151 127.708 246.151 127.404C246.151 127.094 246.229 126.867 246.384 126.723C246.544 126.574 246.743 126.499 246.981 126.499ZM253.514 138.037C253.741 138.037 253.973 138.018 254.211 137.979C254.449 137.94 254.643 137.893 254.792 137.838V138.909C254.632 138.981 254.408 139.042 254.12 139.091C253.838 139.141 253.561 139.166 253.29 139.166C252.809 139.166 252.371 139.083 251.979 138.917C251.586 138.745 251.27 138.458 251.032 138.054C250.8 137.65 250.684 137.091 250.684 136.377V130.981H249.389V130.309L250.692 129.77L251.24 127.794H252.07V129.902H254.734V130.981H252.07V136.335C252.07 136.905 252.2 137.332 252.46 137.614C252.726 137.896 253.077 138.037 253.514 138.037ZM258.013 129.902V139H256.635V129.902H258.013ZM257.341 126.499C257.568 126.499 257.761 126.574 257.922 126.723C258.088 126.867 258.171 127.094 258.171 127.404C258.171 127.708 258.088 127.935 257.922 128.084C257.761 128.234 257.568 128.309 257.341 128.309C257.103 128.309 256.904 128.234 256.743 128.084C256.588 127.935 256.511 127.708 256.511 127.404C256.511 127.094 256.588 126.867 256.743 126.723C256.904 126.574 257.103 126.499 257.341 126.499ZM264.338 129.753C265.423 129.753 266.228 129.996 266.754 130.483C267.28 130.97 267.542 131.748 267.542 132.816V139H266.538L266.272 137.655H266.206C265.951 137.987 265.686 138.267 265.409 138.494C265.132 138.715 264.812 138.884 264.446 139C264.087 139.111 263.644 139.166 263.118 139.166C262.565 139.166 262.072 139.069 261.641 138.875C261.215 138.682 260.877 138.389 260.628 137.996C260.384 137.603 260.263 137.105 260.263 136.501C260.263 135.594 260.622 134.897 261.342 134.41C262.061 133.923 263.157 133.657 264.629 133.613L266.198 133.546V132.99C266.198 132.204 266.029 131.654 265.691 131.338C265.354 131.023 264.878 130.865 264.264 130.865C263.788 130.865 263.334 130.934 262.902 131.073C262.471 131.211 262.061 131.374 261.674 131.562L261.25 130.517C261.66 130.306 262.13 130.126 262.662 129.977C263.193 129.828 263.752 129.753 264.338 129.753ZM266.181 134.518L264.795 134.576C263.66 134.62 262.861 134.805 262.396 135.132C261.931 135.458 261.699 135.92 261.699 136.518C261.699 137.038 261.856 137.423 262.172 137.672C262.487 137.921 262.905 138.045 263.425 138.045C264.233 138.045 264.895 137.821 265.409 137.373C265.924 136.925 266.181 136.252 266.181 135.356V134.518ZM278.035 139.166C276.884 139.166 275.971 138.773 275.295 137.987C274.626 137.201 274.291 136.034 274.291 134.484C274.291 132.918 274.634 131.737 275.32 130.94C276.007 130.138 276.92 129.736 278.06 129.736C278.541 129.736 278.962 129.8 279.321 129.927C279.681 130.055 279.991 130.226 280.251 130.442C280.511 130.652 280.73 130.893 280.907 131.164H281.006C280.984 130.993 280.962 130.757 280.94 130.458C280.918 130.16 280.907 129.916 280.907 129.728V126.084H282.285V139H281.172L280.965 137.705H280.907C280.735 137.976 280.517 138.222 280.251 138.444C279.991 138.665 279.678 138.842 279.313 138.975C278.953 139.102 278.527 139.166 278.035 139.166ZM278.25 138.021C279.224 138.021 279.913 137.744 280.317 137.19C280.721 136.637 280.923 135.815 280.923 134.725V134.476C280.923 133.319 280.73 132.431 280.342 131.812C279.96 131.192 279.263 130.882 278.25 130.882C277.404 130.882 276.77 131.208 276.35 131.861C275.929 132.509 275.719 133.394 275.719 134.518C275.719 135.635 275.926 136.499 276.341 137.107C276.762 137.716 277.398 138.021 278.25 138.021ZM286.584 129.902V139H285.207V129.902H286.584ZM285.912 126.499C286.139 126.499 286.333 126.574 286.493 126.723C286.659 126.867 286.742 127.094 286.742 127.404C286.742 127.708 286.659 127.935 286.493 128.084C286.333 128.234 286.139 128.309 285.912 128.309C285.674 128.309 285.475 128.234 285.314 128.084C285.16 127.935 285.082 127.708 285.082 127.404C285.082 127.094 285.16 126.867 285.314 126.723C285.475 126.574 285.674 126.499 285.912 126.499ZM293.15 139.166C292.331 139.166 291.609 138.997 290.984 138.66C290.359 138.322 289.872 137.807 289.523 137.116C289.174 136.424 289 135.552 289 134.501C289 133.4 289.183 132.5 289.548 131.803C289.919 131.1 290.428 130.58 291.075 130.243C291.723 129.905 292.459 129.736 293.283 129.736C293.737 129.736 294.174 129.783 294.595 129.877C295.021 129.966 295.369 130.079 295.641 130.218L295.226 131.372C294.949 131.261 294.628 131.161 294.263 131.073C293.903 130.984 293.565 130.94 293.25 130.94C292.619 130.94 292.093 131.076 291.673 131.347C291.258 131.618 290.945 132.016 290.735 132.542C290.53 133.068 290.428 133.715 290.428 134.484C290.428 135.22 290.527 135.848 290.727 136.369C290.931 136.889 291.233 137.287 291.631 137.564C292.035 137.835 292.539 137.971 293.142 137.971C293.624 137.971 294.058 137.921 294.445 137.821C294.833 137.716 295.184 137.594 295.5 137.456V138.685C295.195 138.84 294.855 138.958 294.479 139.042C294.108 139.125 293.665 139.166 293.15 139.166ZM300.596 138.037C300.823 138.037 301.056 138.018 301.293 137.979C301.531 137.94 301.725 137.893 301.875 137.838V138.909C301.714 138.981 301.49 139.042 301.202 139.091C300.92 139.141 300.643 139.166 300.372 139.166C299.891 139.166 299.453 139.083 299.061 138.917C298.668 138.745 298.352 138.458 298.114 138.054C297.882 137.65 297.766 137.091 297.766 136.377V130.981H296.471V130.309L297.774 129.77L298.322 127.794H299.152V129.902H301.816V130.981H299.152V136.335C299.152 136.905 299.282 137.332 299.542 137.614C299.808 137.896 300.159 138.037 300.596 138.037ZM307.121 129.753C308.205 129.753 309.01 129.996 309.536 130.483C310.062 130.97 310.325 131.748 310.325 132.816V139H309.32L309.055 137.655H308.988C308.734 137.987 308.468 138.267 308.191 138.494C307.915 138.715 307.594 138.884 307.229 139C306.869 139.111 306.426 139.166 305.9 139.166C305.347 139.166 304.854 139.069 304.423 138.875C303.997 138.682 303.659 138.389 303.41 137.996C303.167 137.603 303.045 137.105 303.045 136.501C303.045 135.594 303.405 134.897 304.124 134.41C304.843 133.923 305.939 133.657 307.411 133.613L308.98 133.546V132.99C308.98 132.204 308.811 131.654 308.474 131.338C308.136 131.023 307.66 130.865 307.046 130.865C306.57 130.865 306.116 130.934 305.685 131.073C305.253 131.211 304.843 131.374 304.456 131.562L304.033 130.517C304.442 130.306 304.913 130.126 305.444 129.977C305.975 129.828 306.534 129.753 307.121 129.753ZM308.963 134.518L307.577 134.576C306.443 134.62 305.643 134.805 305.178 135.132C304.713 135.458 304.481 135.92 304.481 136.518C304.481 137.038 304.639 137.423 304.954 137.672C305.27 137.921 305.687 138.045 306.208 138.045C307.015 138.045 307.677 137.821 308.191 137.373C308.706 136.925 308.963 136.252 308.963 135.356V134.518ZM39.5864 155.736C39.769 155.736 39.96 155.747 40.1592 155.77C40.3584 155.786 40.5355 155.811 40.6904 155.844L40.5161 157.123C40.3667 157.084 40.2007 157.053 40.0181 157.031C39.8354 157.009 39.6639 156.998 39.5034 156.998C39.1382 156.998 38.7923 157.073 38.4658 157.222C38.1449 157.366 37.8626 157.576 37.6191 157.853C37.3757 158.124 37.1847 158.453 37.0464 158.841C36.908 159.223 36.8389 159.649 36.8389 160.119V165H35.4526V155.902H36.5981L36.7476 157.579H36.8057C36.9938 157.242 37.2207 156.934 37.4863 156.658C37.752 156.375 38.0591 156.151 38.4077 155.985C38.7619 155.819 39.1548 155.736 39.5864 155.736ZM45.9116 155.736C46.6864 155.736 47.3504 155.908 47.9038 156.251C48.4572 156.594 48.8805 157.076 49.1738 157.695C49.4671 158.31 49.6138 159.029 49.6138 159.854V160.708H43.3301C43.3467 161.777 43.6123 162.59 44.127 163.149C44.6416 163.708 45.3665 163.987 46.3018 163.987C46.8773 163.987 47.3864 163.935 47.8291 163.83C48.2718 163.724 48.7311 163.569 49.207 163.365V164.577C48.7477 164.781 48.2912 164.931 47.8374 165.025C47.3892 165.119 46.8579 165.166 46.2437 165.166C45.3693 165.166 44.6056 164.989 43.9526 164.635C43.3052 164.275 42.8016 163.749 42.4419 163.058C42.0822 162.366 41.9023 161.519 41.9023 160.518C41.9023 159.538 42.0656 158.691 42.3921 157.978C42.7241 157.258 43.189 156.705 43.7866 156.317C44.3898 155.93 45.0981 155.736 45.9116 155.736ZM45.895 156.865C45.159 156.865 44.5724 157.106 44.1353 157.587C43.6981 158.069 43.438 158.741 43.355 159.604H48.1694C48.1639 159.062 48.0781 158.586 47.9121 158.177C47.7516 157.762 47.5054 157.441 47.1733 157.214C46.8413 156.981 46.4152 156.865 45.895 156.865ZM56.0884 155.736C56.271 155.736 56.4619 155.747 56.6611 155.77C56.8604 155.786 57.0374 155.811 57.1924 155.844L57.0181 157.123C56.8687 157.084 56.7026 157.053 56.52 157.031C56.3374 157.009 56.1659 156.998 56.0054 156.998C55.6401 156.998 55.2943 157.073 54.9678 157.222C54.6468 157.366 54.3646 157.576 54.1211 157.853C53.8776 158.124 53.6867 158.453 53.5483 158.841C53.41 159.223 53.3408 159.649 53.3408 160.119V165H51.9546V155.902H53.1001L53.2495 157.579H53.3076C53.4958 157.242 53.7227 156.934 53.9883 156.658C54.2539 156.375 54.561 156.151 54.9097 155.985C55.2638 155.819 55.6567 155.736 56.0884 155.736ZM66.4229 155.902V165H65.2939L65.0947 163.722H65.02C64.8319 164.037 64.5884 164.303 64.2896 164.519C63.9907 164.734 63.6532 164.895 63.2769 165C62.9061 165.111 62.5104 165.166 62.0898 165.166C61.3704 165.166 60.7673 165.05 60.2803 164.817C59.7933 164.585 59.4253 164.225 59.1763 163.738C58.9328 163.251 58.811 162.626 58.811 161.862V155.902H60.2056V161.763C60.2056 162.521 60.3771 163.088 60.7202 163.464C61.0633 163.835 61.5863 164.021 62.2891 164.021C62.9642 164.021 63.501 163.893 63.8994 163.639C64.3034 163.384 64.5939 163.011 64.771 162.518C64.9481 162.02 65.0366 161.411 65.0366 160.692V155.902H66.4229ZM79.2144 155.736C80.216 155.736 80.9714 155.999 81.4805 156.525C81.9896 157.045 82.2441 157.883 82.2441 159.04V165H80.8828V159.106C80.8828 158.37 80.7223 157.82 80.4014 157.455C80.0859 157.084 79.6156 156.898 78.9902 156.898C78.1104 156.898 77.4712 157.153 77.0728 157.662C76.6743 158.171 76.4751 158.921 76.4751 159.912V165H75.1055V159.106C75.1055 158.614 75.0335 158.204 74.8896 157.878C74.7513 157.551 74.541 157.308 74.2588 157.147C73.9821 156.981 73.6307 156.898 73.2046 156.898C72.6014 156.898 72.1172 157.023 71.752 157.272C71.3867 157.521 71.1211 157.892 70.9551 158.384C70.7946 158.871 70.7144 159.472 70.7144 160.186V165H69.3364V155.902H70.4487L70.6562 157.189H70.731C70.9136 156.874 71.1432 156.608 71.4199 156.392C71.6966 156.176 72.0065 156.013 72.3496 155.902C72.6927 155.792 73.0579 155.736 73.4453 155.736C74.137 155.736 74.7153 155.866 75.1802 156.126C75.6506 156.381 75.9909 156.771 76.2012 157.297H76.2759C76.5747 156.771 76.9842 156.381 77.5044 156.126C78.0246 155.866 78.5946 155.736 79.2144 155.736ZM91.4912 165L88.0381 155.902H89.5156L91.5161 161.406C91.6545 161.782 91.7956 162.197 91.9395 162.651C92.0833 163.105 92.1829 163.47 92.2383 163.747H92.2964C92.3628 163.47 92.4735 163.105 92.6284 162.651C92.7834 162.192 92.9245 161.777 93.0518 161.406L95.0522 155.902H96.5298L93.0684 165H91.4912ZM101.494 155.736C102.268 155.736 102.932 155.908 103.486 156.251C104.039 156.594 104.463 157.076 104.756 157.695C105.049 158.31 105.196 159.029 105.196 159.854V160.708H98.9121C98.9287 161.777 99.1943 162.59 99.709 163.149C100.224 163.708 100.949 163.987 101.884 163.987C102.459 163.987 102.968 163.935 103.411 163.83C103.854 163.724 104.313 163.569 104.789 163.365V164.577C104.33 164.781 103.873 164.931 103.419 165.025C102.971 165.119 102.44 165.166 101.826 165.166C100.951 165.166 100.188 164.989 99.5347 164.635C98.8872 164.275 98.3836 163.749 98.0239 163.058C97.6642 162.366 97.4844 161.519 97.4844 160.518C97.4844 159.538 97.6476 158.691 97.9741 157.978C98.3062 157.258 98.771 156.705 99.3687 156.317C99.9718 155.93 100.68 155.736 101.494 155.736ZM101.477 156.865C100.741 156.865 100.154 157.106 99.7173 157.587C99.2801 158.069 99.02 158.741 98.937 159.604H103.751C103.746 159.062 103.66 158.586 103.494 158.177C103.334 157.762 103.087 157.441 102.755 157.214C102.423 156.981 101.997 156.865 101.477 156.865ZM111.67 155.736C111.853 155.736 112.044 155.747 112.243 155.77C112.442 155.786 112.619 155.811 112.774 155.844L112.6 157.123C112.451 157.084 112.285 157.053 112.102 157.031C111.919 157.009 111.748 156.998 111.587 156.998C111.222 156.998 110.876 157.073 110.55 157.222C110.229 157.366 109.947 157.576 109.703 157.853C109.46 158.124 109.269 158.453 109.13 158.841C108.992 159.223 108.923 159.649 108.923 160.119V165H107.537V155.902H108.682L108.832 157.579H108.89C109.078 157.242 109.305 156.934 109.57 156.658C109.836 156.375 110.143 156.151 110.492 155.985C110.846 155.819 111.239 155.736 111.67 155.736ZM122.337 160.435C122.337 161.182 122.24 161.848 122.046 162.435C121.853 163.022 121.573 163.517 121.208 163.921C120.843 164.325 120.4 164.635 119.88 164.851C119.365 165.061 118.781 165.166 118.128 165.166C117.52 165.166 116.961 165.061 116.452 164.851C115.948 164.635 115.511 164.325 115.14 163.921C114.775 163.517 114.49 163.022 114.285 162.435C114.086 161.848 113.986 161.182 113.986 160.435C113.986 159.438 114.155 158.592 114.493 157.895C114.83 157.192 115.312 156.658 115.937 156.292C116.568 155.922 117.318 155.736 118.187 155.736C119.017 155.736 119.742 155.922 120.361 156.292C120.987 156.663 121.471 157.2 121.814 157.903C122.163 158.6 122.337 159.444 122.337 160.435ZM115.414 160.435C115.414 161.165 115.511 161.799 115.705 162.335C115.898 162.872 116.197 163.287 116.601 163.581C117.005 163.874 117.525 164.021 118.162 164.021C118.792 164.021 119.31 163.874 119.714 163.581C120.123 163.287 120.425 162.872 120.619 162.335C120.812 161.799 120.909 161.165 120.909 160.435C120.909 159.71 120.812 159.084 120.619 158.559C120.425 158.027 120.126 157.618 119.722 157.33C119.318 157.042 118.795 156.898 118.153 156.898C117.207 156.898 116.513 157.211 116.07 157.836C115.633 158.462 115.414 159.328 115.414 160.435ZM132.539 155.753C133.623 155.753 134.428 155.996 134.954 156.483C135.48 156.97 135.743 157.748 135.743 158.816V165H134.738L134.473 163.655H134.406C134.152 163.987 133.886 164.267 133.609 164.494C133.333 164.715 133.012 164.884 132.646 165C132.287 165.111 131.844 165.166 131.318 165.166C130.765 165.166 130.272 165.069 129.841 164.875C129.415 164.682 129.077 164.389 128.828 163.996C128.585 163.603 128.463 163.105 128.463 162.501C128.463 161.594 128.823 160.897 129.542 160.41C130.261 159.923 131.357 159.657 132.829 159.613L134.398 159.546V158.99C134.398 158.204 134.229 157.654 133.892 157.338C133.554 157.023 133.078 156.865 132.464 156.865C131.988 156.865 131.534 156.934 131.103 157.073C130.671 157.211 130.261 157.374 129.874 157.562L129.451 156.517C129.86 156.306 130.331 156.126 130.862 155.977C131.393 155.828 131.952 155.753 132.539 155.753ZM134.381 160.518L132.995 160.576C131.861 160.62 131.061 160.805 130.596 161.132C130.131 161.458 129.899 161.92 129.899 162.518C129.899 163.038 130.057 163.423 130.372 163.672C130.688 163.921 131.105 164.045 131.625 164.045C132.433 164.045 133.095 163.821 133.609 163.373C134.124 162.925 134.381 162.252 134.381 161.356V160.518ZM146.094 155.902V165H144.965L144.766 163.722H144.691C144.503 164.037 144.259 164.303 143.96 164.519C143.662 164.734 143.324 164.895 142.948 165C142.577 165.111 142.181 165.166 141.761 165.166C141.041 165.166 140.438 165.05 139.951 164.817C139.464 164.585 139.096 164.225 138.847 163.738C138.604 163.251 138.482 162.626 138.482 161.862V155.902H139.876V161.763C139.876 162.521 140.048 163.088 140.391 163.464C140.734 163.835 141.257 164.021 141.96 164.021C142.635 164.021 143.172 163.893 143.57 163.639C143.974 163.384 144.265 163.011 144.442 162.518C144.619 162.02 144.708 161.411 144.708 160.692V155.902H146.094ZM151.946 164.037C152.173 164.037 152.405 164.018 152.643 163.979C152.881 163.94 153.075 163.893 153.224 163.838V164.909C153.064 164.981 152.84 165.042 152.552 165.091C152.27 165.141 151.993 165.166 151.722 165.166C151.24 165.166 150.803 165.083 150.41 164.917C150.017 164.745 149.702 164.458 149.464 164.054C149.231 163.65 149.115 163.091 149.115 162.377V156.981H147.82V156.309L149.124 155.77L149.671 153.794H150.501V155.902H153.166V156.981H150.501V162.335C150.501 162.905 150.632 163.332 150.892 163.614C151.157 163.896 151.509 164.037 151.946 164.037ZM160.861 155.902V165H159.483V155.902H160.861ZM160.188 152.499C160.415 152.499 160.609 152.574 160.77 152.723C160.936 152.867 161.019 153.094 161.019 153.404C161.019 153.708 160.936 153.935 160.77 154.084C160.609 154.234 160.415 154.309 160.188 154.309C159.951 154.309 159.751 154.234 159.591 154.084C159.436 153.935 159.358 153.708 159.358 153.404C159.358 153.094 159.436 152.867 159.591 152.723C159.751 152.574 159.951 152.499 160.188 152.499ZM168.091 155.736C169.17 155.736 169.986 156.002 170.54 156.533C171.093 157.059 171.37 157.906 171.37 159.073V165H170.008V159.165C170.008 158.406 169.834 157.839 169.485 157.463C169.142 157.087 168.614 156.898 167.9 156.898C166.893 156.898 166.184 157.183 165.775 157.753C165.365 158.323 165.161 159.151 165.161 160.235V165H163.783V155.902H164.895L165.103 157.214H165.177C165.371 156.893 165.617 156.625 165.916 156.409C166.215 156.187 166.55 156.021 166.92 155.911C167.291 155.794 167.681 155.736 168.091 155.736ZM180.625 165L177.172 155.902H178.649L180.65 161.406C180.788 161.782 180.929 162.197 181.073 162.651C181.217 163.105 181.317 163.47 181.372 163.747H181.43C181.497 163.47 181.607 163.105 181.762 162.651C181.917 162.192 182.058 161.777 182.186 161.406L184.186 155.902H185.664L182.202 165H180.625ZM190.627 155.736C191.402 155.736 192.066 155.908 192.62 156.251C193.173 156.594 193.596 157.076 193.89 157.695C194.183 158.31 194.33 159.029 194.33 159.854V160.708H188.046C188.062 161.777 188.328 162.59 188.843 163.149C189.357 163.708 190.082 163.987 191.018 163.987C191.593 163.987 192.102 163.935 192.545 163.83C192.988 163.724 193.447 163.569 193.923 163.365V164.577C193.464 164.781 193.007 164.931 192.553 165.025C192.105 165.119 191.574 165.166 190.959 165.166C190.085 165.166 189.321 164.989 188.668 164.635C188.021 164.275 187.517 163.749 187.158 163.058C186.798 162.366 186.618 161.519 186.618 160.518C186.618 159.538 186.781 158.691 187.108 157.978C187.44 157.258 187.905 156.705 188.502 156.317C189.106 155.93 189.814 155.736 190.627 155.736ZM190.611 156.865C189.875 156.865 189.288 157.106 188.851 157.587C188.414 158.069 188.154 158.741 188.071 159.604H192.885C192.88 159.062 192.794 158.586 192.628 158.177C192.467 157.762 192.221 157.441 191.889 157.214C191.557 156.981 191.131 156.865 190.611 156.865ZM198.057 165H196.67V152.084H198.057V165ZM200.763 164.137C200.763 163.749 200.857 163.475 201.045 163.315C201.233 163.149 201.463 163.066 201.734 163.066C202.016 163.066 202.254 163.149 202.448 163.315C202.641 163.475 202.738 163.749 202.738 164.137C202.738 164.519 202.641 164.798 202.448 164.975C202.254 165.147 202.016 165.232 201.734 165.232C201.463 165.232 201.233 165.147 201.045 164.975C200.857 164.798 200.763 164.519 200.763 164.137ZM216.908 161.771C216.908 162.49 216.728 163.105 216.368 163.614C216.014 164.117 215.516 164.502 214.874 164.768C214.232 165.033 213.477 165.166 212.608 165.166C212.149 165.166 211.714 165.144 211.305 165.1C210.895 165.055 210.519 164.992 210.176 164.909C209.833 164.826 209.531 164.723 209.271 164.602V163.249C209.686 163.42 210.192 163.581 210.79 163.73C211.388 163.874 212.013 163.946 212.666 163.946C213.275 163.946 213.789 163.866 214.21 163.705C214.631 163.539 214.949 163.304 215.165 163C215.386 162.69 215.497 162.319 215.497 161.887C215.497 161.472 215.405 161.126 215.223 160.85C215.04 160.567 214.736 160.313 214.31 160.086C213.889 159.854 213.313 159.607 212.583 159.347C212.068 159.165 211.615 158.965 211.222 158.75C210.829 158.528 210.5 158.279 210.234 158.002C209.968 157.726 209.766 157.405 209.628 157.04C209.495 156.674 209.429 156.257 209.429 155.786C209.429 155.139 209.592 154.585 209.918 154.126C210.25 153.661 210.707 153.307 211.288 153.063C211.875 152.814 212.547 152.69 213.305 152.69C213.953 152.69 214.55 152.751 215.098 152.873C215.652 152.994 216.158 153.158 216.617 153.362L216.177 154.574C215.74 154.392 215.275 154.239 214.783 154.118C214.296 153.996 213.792 153.935 213.272 153.935C212.752 153.935 212.312 154.013 211.952 154.167C211.598 154.317 211.327 154.53 211.139 154.807C210.951 155.083 210.856 155.413 210.856 155.794C210.856 156.221 210.945 156.575 211.122 156.857C211.305 157.139 211.592 157.391 211.985 157.612C212.384 157.828 212.91 158.055 213.562 158.293C214.276 158.553 214.882 158.83 215.38 159.123C215.878 159.411 216.257 159.765 216.518 160.186C216.778 160.601 216.908 161.129 216.908 161.771ZM222.685 155.736C223.46 155.736 224.124 155.908 224.677 156.251C225.231 156.594 225.654 157.076 225.947 157.695C226.241 158.31 226.387 159.029 226.387 159.854V160.708H220.104C220.12 161.777 220.386 162.59 220.9 163.149C221.415 163.708 222.14 163.987 223.075 163.987C223.651 163.987 224.16 163.935 224.603 163.83C225.045 163.724 225.505 163.569 225.98 163.365V164.577C225.521 164.781 225.065 164.931 224.611 165.025C224.163 165.119 223.631 165.166 223.017 165.166C222.143 165.166 221.379 164.989 220.726 164.635C220.079 164.275 219.575 163.749 219.215 163.058C218.856 162.366 218.676 161.519 218.676 160.518C218.676 159.538 218.839 158.691 219.166 157.978C219.498 157.258 219.962 156.705 220.56 156.317C221.163 155.93 221.872 155.736 222.685 155.736ZM222.668 156.865C221.932 156.865 221.346 157.106 220.909 157.587C220.472 158.069 220.211 158.741 220.128 159.604H224.943C224.937 159.062 224.852 158.586 224.686 158.177C224.525 157.762 224.279 157.441 223.947 157.214C223.615 156.981 223.189 156.865 222.668 156.865ZM231.965 165.166C230.814 165.166 229.901 164.773 229.226 163.987C228.556 163.201 228.222 162.034 228.222 160.484C228.222 158.918 228.565 157.737 229.251 156.94C229.937 156.138 230.85 155.736 231.99 155.736C232.472 155.736 232.892 155.8 233.252 155.927C233.612 156.055 233.922 156.226 234.182 156.442C234.442 156.652 234.66 156.893 234.837 157.164H234.937C234.915 156.993 234.893 156.757 234.871 156.458C234.848 156.16 234.837 155.916 234.837 155.728V152.084H236.215V165H235.103L234.896 163.705H234.837C234.666 163.976 234.447 164.222 234.182 164.444C233.922 164.665 233.609 164.842 233.244 164.975C232.884 165.102 232.458 165.166 231.965 165.166ZM232.181 164.021C233.155 164.021 233.844 163.744 234.248 163.19C234.652 162.637 234.854 161.815 234.854 160.725V160.476C234.854 159.319 234.66 158.431 234.273 157.812C233.891 157.192 233.194 156.882 232.181 156.882C231.334 156.882 230.701 157.208 230.28 157.861C229.86 158.509 229.649 159.394 229.649 160.518C229.649 161.635 229.857 162.499 230.272 163.107C230.693 163.716 231.329 164.021 232.181 164.021ZM246.791 165.166C245.639 165.166 244.726 164.773 244.051 163.987C243.382 163.201 243.047 162.034 243.047 160.484C243.047 158.918 243.39 157.737 244.076 156.94C244.762 156.138 245.675 155.736 246.815 155.736C247.297 155.736 247.717 155.8 248.077 155.927C248.437 156.055 248.747 156.226 249.007 156.442C249.267 156.652 249.486 156.893 249.663 157.164H249.762C249.74 156.993 249.718 156.757 249.696 156.458C249.674 156.16 249.663 155.916 249.663 155.728V152.084H251.041V165H249.928L249.721 163.705H249.663C249.491 163.976 249.272 164.222 249.007 164.444C248.747 164.665 248.434 164.842 248.069 164.975C247.709 165.102 247.283 165.166 246.791 165.166ZM247.006 164.021C247.98 164.021 248.669 163.744 249.073 163.19C249.477 162.637 249.679 161.815 249.679 160.725V160.476C249.679 159.319 249.486 158.431 249.098 157.812C248.716 157.192 248.019 156.882 247.006 156.882C246.16 156.882 245.526 157.208 245.105 157.861C244.685 158.509 244.475 159.394 244.475 160.518C244.475 161.635 244.682 162.499 245.097 163.107C245.518 163.716 246.154 164.021 247.006 164.021ZM261.807 160.435C261.807 161.182 261.71 161.848 261.516 162.435C261.322 163.022 261.043 163.517 260.678 163.921C260.312 164.325 259.87 164.635 259.35 164.851C258.835 165.061 258.251 165.166 257.598 165.166C256.989 165.166 256.431 165.061 255.921 164.851C255.418 164.635 254.981 164.325 254.61 163.921C254.245 163.517 253.96 163.022 253.755 162.435C253.556 161.848 253.456 161.182 253.456 160.435C253.456 159.438 253.625 158.592 253.962 157.895C254.3 157.192 254.781 156.658 255.407 156.292C256.038 155.922 256.787 155.736 257.656 155.736C258.486 155.736 259.211 155.922 259.831 156.292C260.456 156.663 260.941 157.2 261.284 157.903C261.632 158.6 261.807 159.444 261.807 160.435ZM254.884 160.435C254.884 161.165 254.981 161.799 255.174 162.335C255.368 162.872 255.667 163.287 256.071 163.581C256.475 163.874 256.995 164.021 257.631 164.021C258.262 164.021 258.78 163.874 259.184 163.581C259.593 163.287 259.895 162.872 260.088 162.335C260.282 161.799 260.379 161.165 260.379 160.435C260.379 159.71 260.282 159.084 260.088 158.559C259.895 158.027 259.596 157.618 259.192 157.33C258.788 157.042 258.265 156.898 257.623 156.898C256.677 156.898 255.982 157.211 255.54 157.836C255.102 158.462 254.884 159.328 254.884 160.435ZM265.575 165H264.189V152.084H265.575V165ZM276.333 160.435C276.333 161.182 276.236 161.848 276.042 162.435C275.849 163.022 275.569 163.517 275.204 163.921C274.839 164.325 274.396 164.635 273.876 164.851C273.361 165.061 272.778 165.166 272.125 165.166C271.516 165.166 270.957 165.061 270.448 164.851C269.944 164.635 269.507 164.325 269.136 163.921C268.771 163.517 268.486 163.022 268.281 162.435C268.082 161.848 267.982 161.182 267.982 160.435C267.982 159.438 268.151 158.592 268.489 157.895C268.826 157.192 269.308 156.658 269.933 156.292C270.564 155.922 271.314 155.736 272.183 155.736C273.013 155.736 273.738 155.922 274.357 156.292C274.983 156.663 275.467 157.2 275.81 157.903C276.159 158.6 276.333 159.444 276.333 160.435ZM269.41 160.435C269.41 161.165 269.507 161.799 269.701 162.335C269.894 162.872 270.193 163.287 270.597 163.581C271.001 163.874 271.521 164.021 272.158 164.021C272.789 164.021 273.306 163.874 273.71 163.581C274.119 163.287 274.421 162.872 274.615 162.335C274.808 161.799 274.905 161.165 274.905 160.435C274.905 159.71 274.808 159.084 274.615 158.559C274.421 158.027 274.122 157.618 273.718 157.33C273.314 157.042 272.791 156.898 272.149 156.898C271.203 156.898 270.509 157.211 270.066 157.836C269.629 158.462 269.41 159.328 269.41 160.435ZM282.849 155.736C283.032 155.736 283.223 155.747 283.422 155.77C283.621 155.786 283.798 155.811 283.953 155.844L283.779 157.123C283.629 157.084 283.463 157.053 283.281 157.031C283.098 157.009 282.927 156.998 282.766 156.998C282.401 156.998 282.055 157.073 281.729 157.222C281.408 157.366 281.125 157.576 280.882 157.853C280.638 158.124 280.447 158.453 280.309 158.841C280.171 159.223 280.102 159.649 280.102 160.119V165H278.715V155.902H279.861L280.01 157.579H280.068C280.257 157.242 280.483 156.934 280.749 156.658C281.015 156.375 281.322 156.151 281.67 155.985C282.025 155.819 282.417 155.736 282.849 155.736ZM38.9556 180.736C39.7303 180.736 40.3944 180.908 40.9478 181.251C41.5011 181.594 41.9245 182.076 42.2178 182.695C42.5111 183.31 42.6577 184.029 42.6577 184.854V185.708H36.374C36.3906 186.777 36.6562 187.59 37.1709 188.149C37.6855 188.708 38.4105 188.987 39.3457 188.987C39.9212 188.987 40.4303 188.935 40.873 188.83C41.3158 188.724 41.7751 188.569 42.251 188.365V189.577C41.7917 189.781 41.3351 189.931 40.8813 190.025C40.4331 190.119 39.9019 190.166 39.2876 190.166C38.4132 190.166 37.6496 189.989 36.9966 189.635C36.3491 189.275 35.8455 188.749 35.4858 188.058C35.1261 187.366 34.9463 186.519 34.9463 185.518C34.9463 184.538 35.1095 183.691 35.436 182.978C35.7681 182.258 36.2329 181.705 36.8306 181.317C37.4338 180.93 38.1421 180.736 38.9556 180.736ZM38.939 181.865C38.203 181.865 37.6164 182.106 37.1792 182.587C36.742 183.069 36.4819 183.741 36.3989 184.604H41.2134C41.2078 184.062 41.1221 183.586 40.9561 183.177C40.7956 182.762 40.5493 182.441 40.2173 182.214C39.8853 181.981 39.4591 181.865 38.939 181.865ZM49.3066 180.736C50.3857 180.736 51.202 181.002 51.7554 181.533C52.3088 182.059 52.5854 182.906 52.5854 184.073V190H51.2241V184.165C51.2241 183.406 51.0498 182.839 50.7012 182.463C50.3581 182.087 49.8296 181.898 49.1157 181.898C48.1086 181.898 47.4002 182.183 46.9907 182.753C46.5812 183.323 46.3765 184.151 46.3765 185.235V190H44.9985V180.902H46.1108L46.3184 182.214H46.3931C46.5868 181.893 46.833 181.625 47.1318 181.409C47.4307 181.187 47.7655 181.021 48.1362 180.911C48.507 180.794 48.8971 180.736 49.3066 180.736ZM56.8022 180.902V190H55.4243V180.902H56.8022ZM56.1299 177.499C56.3568 177.499 56.5505 177.574 56.7109 177.723C56.877 177.867 56.96 178.094 56.96 178.404C56.96 178.708 56.877 178.935 56.7109 179.084C56.5505 179.234 56.3568 179.309 56.1299 179.309C55.8919 179.309 55.6927 179.234 55.5322 179.084C55.3773 178.935 55.2998 178.708 55.2998 178.404C55.2998 178.094 55.3773 177.867 55.5322 177.723C55.6927 177.574 55.8919 177.499 56.1299 177.499ZM69.6021 180.736C70.6037 180.736 71.359 180.999 71.8682 181.525C72.3773 182.045 72.6318 182.883 72.6318 184.04V190H71.2705V184.106C71.2705 183.37 71.11 182.82 70.7891 182.455C70.4736 182.084 70.0033 181.898 69.3779 181.898C68.498 181.898 67.8589 182.153 67.4604 182.662C67.062 183.171 66.8628 183.921 66.8628 184.912V190H65.4932V184.106C65.4932 183.614 65.4212 183.204 65.2773 182.878C65.139 182.551 64.9287 182.308 64.6465 182.147C64.3698 181.981 64.0184 181.898 63.5923 181.898C62.9891 181.898 62.5049 182.023 62.1396 182.272C61.7744 182.521 61.5088 182.892 61.3428 183.384C61.1823 183.871 61.1021 184.472 61.1021 185.186V190H59.7241V180.902H60.8364L61.0439 182.189H61.1187C61.3013 181.874 61.5309 181.608 61.8076 181.392C62.0843 181.176 62.3942 181.013 62.7373 180.902C63.0804 180.792 63.4456 180.736 63.833 180.736C64.5247 180.736 65.103 180.866 65.5679 181.126C66.0382 181.381 66.3786 181.771 66.5889 182.297H66.6636C66.9624 181.771 67.3719 181.381 67.8921 181.126C68.4123 180.866 68.9823 180.736 69.6021 180.736ZM81.8789 190L78.4258 180.902H79.9033L81.9038 186.406C82.0422 186.782 82.1833 187.197 82.3271 187.651C82.471 188.105 82.5706 188.47 82.626 188.747H82.6841C82.7505 188.47 82.8612 188.105 83.0161 187.651C83.1711 187.192 83.3122 186.777 83.4395 186.406L85.4399 180.902H86.9175L83.4561 190H81.8789ZM96.2227 185.435C96.2227 186.182 96.1258 186.848 95.9321 187.435C95.7384 188.022 95.459 188.517 95.0938 188.921C94.7285 189.325 94.2858 189.635 93.7656 189.851C93.251 190.061 92.6672 190.166 92.0142 190.166C91.4054 190.166 90.8465 190.061 90.3374 189.851C89.8338 189.635 89.3966 189.325 89.0259 188.921C88.6606 188.517 88.3757 188.022 88.1709 187.435C87.9717 186.848 87.8721 186.182 87.8721 185.435C87.8721 184.438 88.0409 183.592 88.3784 182.895C88.716 182.192 89.1974 181.658 89.8228 181.292C90.4536 180.922 91.2035 180.736 92.0723 180.736C92.9023 180.736 93.6273 180.922 94.2471 181.292C94.8724 181.663 95.3566 182.2 95.6997 182.903C96.0483 183.6 96.2227 184.444 96.2227 185.435ZM89.2998 185.435C89.2998 186.165 89.3966 186.799 89.5903 187.335C89.784 187.872 90.0828 188.287 90.4868 188.581C90.8908 188.874 91.411 189.021 92.0474 189.021C92.6782 189.021 93.1956 188.874 93.5996 188.581C94.0091 188.287 94.3107 187.872 94.5044 187.335C94.6981 186.799 94.7949 186.165 94.7949 185.435C94.7949 184.71 94.6981 184.084 94.5044 183.559C94.3107 183.027 94.0119 182.618 93.6079 182.33C93.2039 182.042 92.681 181.898 92.0391 181.898C91.0928 181.898 90.3983 182.211 89.9556 182.836C89.5184 183.462 89.2998 184.328 89.2998 185.435ZM99.9912 190H98.605V177.084H99.9912V190ZM110.417 180.902V190H109.288L109.089 188.722H109.014C108.826 189.037 108.583 189.303 108.284 189.519C107.985 189.734 107.647 189.895 107.271 190C106.9 190.111 106.505 190.166 106.084 190.166C105.365 190.166 104.761 190.05 104.274 189.817C103.787 189.585 103.419 189.225 103.17 188.738C102.927 188.251 102.805 187.626 102.805 186.862V180.902H104.2V186.763C104.2 187.521 104.371 188.088 104.714 188.464C105.057 188.835 105.58 189.021 106.283 189.021C106.958 189.021 107.495 188.893 107.894 188.639C108.298 188.384 108.588 188.011 108.765 187.518C108.942 187.02 109.031 186.411 109.031 185.692V180.902H110.417ZM117.605 180.736C118.74 180.736 119.645 181.126 120.32 181.907C120.995 182.687 121.333 183.86 121.333 185.426C121.333 186.461 121.178 187.33 120.868 188.033C120.558 188.736 120.121 189.267 119.556 189.626C118.997 189.986 118.336 190.166 117.572 190.166C117.091 190.166 116.667 190.102 116.302 189.975C115.937 189.848 115.624 189.676 115.364 189.46C115.104 189.245 114.888 189.009 114.717 188.755H114.617C114.634 188.971 114.653 189.231 114.675 189.535C114.703 189.84 114.717 190.105 114.717 190.332V194.067H113.331V180.902H114.468L114.65 182.247H114.717C114.894 181.97 115.11 181.719 115.364 181.492C115.619 181.259 115.929 181.077 116.294 180.944C116.665 180.806 117.102 180.736 117.605 180.736ZM117.365 181.898C116.734 181.898 116.225 182.02 115.837 182.264C115.456 182.507 115.176 182.872 114.999 183.359C114.822 183.841 114.728 184.447 114.717 185.177V185.443C114.717 186.212 114.8 186.862 114.966 187.394C115.137 187.925 115.417 188.329 115.804 188.605C116.197 188.882 116.723 189.021 117.381 189.021C117.946 189.021 118.416 188.868 118.792 188.564C119.169 188.26 119.448 187.836 119.631 187.294C119.819 186.746 119.913 186.118 119.913 185.41C119.913 184.336 119.703 183.484 119.282 182.853C118.867 182.217 118.228 181.898 117.365 181.898ZM126.678 189.037C126.905 189.037 127.138 189.018 127.375 188.979C127.613 188.94 127.807 188.893 127.957 188.838V189.909C127.796 189.981 127.572 190.042 127.284 190.091C127.002 190.141 126.725 190.166 126.454 190.166C125.973 190.166 125.535 190.083 125.143 189.917C124.75 189.745 124.434 189.458 124.196 189.054C123.964 188.65 123.848 188.091 123.848 187.377V181.981H122.553V181.309L123.856 180.77L124.404 178.794H125.234V180.902H127.898V181.981H125.234V187.335C125.234 187.905 125.364 188.332 125.624 188.614C125.89 188.896 126.241 189.037 126.678 189.037ZM133.203 180.753C134.287 180.753 135.092 180.996 135.618 181.483C136.144 181.97 136.407 182.748 136.407 183.816V190H135.402L135.137 188.655H135.07C134.816 188.987 134.55 189.267 134.273 189.494C133.997 189.715 133.676 189.884 133.311 190C132.951 190.111 132.508 190.166 131.982 190.166C131.429 190.166 130.937 190.069 130.505 189.875C130.079 189.682 129.741 189.389 129.492 188.996C129.249 188.603 129.127 188.105 129.127 187.501C129.127 186.594 129.487 185.897 130.206 185.41C130.925 184.923 132.021 184.657 133.493 184.613L135.062 184.546V183.99C135.062 183.204 134.893 182.654 134.556 182.338C134.218 182.023 133.742 181.865 133.128 181.865C132.652 181.865 132.198 181.934 131.767 182.073C131.335 182.211 130.925 182.374 130.538 182.562L130.115 181.517C130.524 181.306 130.995 181.126 131.526 180.977C132.057 180.828 132.616 180.753 133.203 180.753ZM135.045 185.518L133.659 185.576C132.525 185.62 131.725 185.805 131.26 186.132C130.795 186.458 130.563 186.92 130.563 187.518C130.563 188.038 130.721 188.423 131.036 188.672C131.352 188.921 131.769 189.045 132.29 189.045C133.097 189.045 133.759 188.821 134.273 188.373C134.788 187.925 135.045 187.252 135.045 186.356V185.518ZM145.131 187.51C145.131 188.091 144.984 188.581 144.691 188.979C144.403 189.372 143.988 189.668 143.446 189.867C142.909 190.066 142.267 190.166 141.52 190.166C140.884 190.166 140.333 190.116 139.868 190.017C139.403 189.917 138.997 189.776 138.648 189.593V188.323C139.019 188.506 139.461 188.672 139.976 188.821C140.491 188.971 141.016 189.045 141.553 189.045C142.339 189.045 142.909 188.918 143.263 188.664C143.617 188.409 143.794 188.063 143.794 187.626C143.794 187.377 143.722 187.158 143.579 186.97C143.44 186.777 143.205 186.591 142.873 186.414C142.541 186.231 142.082 186.032 141.495 185.816C140.914 185.595 140.41 185.376 139.984 185.161C139.564 184.939 139.237 184.671 139.005 184.355C138.778 184.04 138.665 183.631 138.665 183.127C138.665 182.358 138.974 181.768 139.594 181.359C140.22 180.944 141.039 180.736 142.051 180.736C142.599 180.736 143.111 180.792 143.587 180.902C144.068 181.007 144.517 181.151 144.932 181.334L144.467 182.438C144.09 182.278 143.689 182.142 143.263 182.031C142.837 181.921 142.403 181.865 141.96 181.865C141.324 181.865 140.834 181.97 140.491 182.181C140.153 182.391 139.984 182.679 139.984 183.044C139.984 183.326 140.062 183.559 140.217 183.741C140.377 183.924 140.632 184.095 140.98 184.256C141.329 184.416 141.788 184.604 142.358 184.82C142.928 185.031 143.421 185.249 143.836 185.476C144.251 185.697 144.569 185.969 144.791 186.29C145.017 186.605 145.131 187.012 145.131 187.51ZM147.14 189.137C147.14 188.749 147.234 188.475 147.422 188.315C147.61 188.149 147.84 188.066 148.111 188.066C148.393 188.066 148.631 188.149 148.825 188.315C149.018 188.475 149.115 188.749 149.115 189.137C149.115 189.519 149.018 189.798 148.825 189.975C148.631 190.147 148.393 190.232 148.111 190.232C147.84 190.232 147.61 190.147 147.422 189.975C147.234 189.798 147.14 189.519 147.14 189.137Z" fill="#141414"/>
<defs>
<clipPath id="clip0_1_223">
<rect width="51" height="68" fill="white" transform="translate(34 34)"/>
</clipPath>
</defs>
</svg>
